<svg width="100" height="100" viewBox="0 0 100 100" fill="none" xmlns="http://www.w3.org/2000/svg">
<g clip-path="url(#clip0_995_10102)">
<path d="M50 93.75C38.3968 93.75 27.2688 89.1406 19.0641 80.9359C10.8594 72.7312 6.25 61.6032 6.25 50C6.25 38.3968 10.8594 27.2688 19.0641 19.0641C27.2688 10.8594 38.3968 6.25 50 6.25C61.6032 6.25 72.7312 10.8594 80.9359 19.0641C89.1406 27.2688 93.75 38.3968 93.75 50C93.75 61.6032 89.1406 72.7312 80.9359 80.9359C72.7312 89.1406 61.6032 93.75 50 93.75ZM50 100C63.2608 100 75.9785 94.7322 85.3553 85.3553C94.7322 75.9785 100 63.2608 100 50C100 36.7392 94.7322 24.0215 85.3553 14.6447C75.9785 5.26784 63.2608 0 50 0C36.7392 0 24.0215 5.26784 14.6447 14.6447C5.26784 24.0215 0 36.7392 0 50C0 63.2608 5.26784 75.9785 14.6447 85.3553C24.0215 94.7322 36.7392 100 50 100Z" fill="#543EE9"/>
<path d="M26.7812 59.7938C27.4989 59.3794 28.3519 59.2671 29.1524 59.4816C29.9529 59.6961 30.6355 60.2198 31.0499 60.9375C32.9694 64.2646 35.7315 67.0273 39.0582 68.9474C42.3849 70.8675 46.1588 71.8773 49.9999 71.875C53.841 71.8773 57.6149 70.8675 60.9416 68.9474C64.2683 67.0273 67.0305 64.2646 68.9499 60.9375C69.1536 60.5792 69.4262 60.2648 69.7519 60.0123C70.0776 59.7598 70.45 59.5742 70.8478 59.4662C71.2455 59.3582 71.6606 59.33 72.0693 59.3831C72.478 59.4362 72.8722 59.5697 73.2291 59.7757C73.586 59.9818 73.8986 60.2564 74.1489 60.5838C74.3993 60.9112 74.5824 61.2849 74.6877 61.6833C74.7931 62.0817 74.8186 62.4971 74.7627 62.9054C74.7069 63.3137 74.5708 63.707 74.3624 64.0625C71.8944 68.3397 68.3433 71.8914 64.0665 74.36C59.7897 76.8287 54.9381 78.1272 49.9999 78.125C45.0618 78.1272 40.2101 76.8287 35.9333 74.36C31.6565 71.8914 28.1054 68.3397 25.6374 64.0625C25.223 63.3447 25.1107 62.4918 25.3252 61.6913C25.5397 60.8907 26.0634 60.2082 26.7812 59.7938ZM43.7499 40.625C43.7499 45.8 40.9499 50 37.4999 50C34.0499 50 31.2499 45.8 31.2499 40.625C31.2499 35.45 34.0499 31.25 37.4999 31.25C40.9499 31.25 43.7499 35.45 43.7499 40.625ZM54.7312 37.8938C55.0898 37.6943 55.4843 37.5674 55.892 37.5204C56.2997 37.4734 56.7126 37.5072 57.1073 37.6198C57.5019 37.7323 57.8706 37.9216 58.1921 38.1766C58.5136 38.4317 58.7817 38.7476 58.9812 39.1062C59.4747 40.0277 60.2065 40.7998 61.1004 41.3418C61.9942 41.8838 63.0172 42.1759 64.0624 42.1875C66.1812 42.1875 68.0937 41 69.1437 39.1062C69.5465 38.3819 70.2205 37.8472 71.0176 37.6198C71.8146 37.3924 72.6693 37.491 73.3937 37.8938C74.118 38.2965 74.6527 38.9706 74.8801 39.7676C75.1075 40.5647 75.009 41.4194 74.6062 42.1437C73.5711 44.039 72.0473 45.6224 70.193 46.7292C68.3388 47.836 66.2219 48.4259 64.0624 48.4375C59.4999 48.4375 55.5874 45.8625 53.5187 42.1437C53.3192 41.7851 53.1924 41.3906 53.1453 40.9829C53.0983 40.5752 53.1321 40.1623 53.2447 39.7676C53.3573 39.373 53.5465 39.0044 53.8015 38.6828C54.0566 38.3613 54.3725 38.0932 54.7312 37.8938Z" fill="#543EE9"/>
</g>
<defs>
<clipPath id="clip0_995_10102">
<rect width="100" height="100" fill="white"/>
</clipPath>
</defs>
</svg>
