<svg width="154" height="113" viewBox="0 0 154 113" fill="none" xmlns="http://www.w3.org/2000/svg">
<path d="M37.7768 104.016V88.655C37.7768 88.4492 37.7953 88.234 37.7768 88.0287C37.776 88.0198 37.7768 88.0104 37.7768 88.0015C37.7757 87.9243 37.712 87.8621 37.6332 87.861C36.6334 87.8574 35.7039 87.3574 35.1655 86.5335C34.8573 86.0433 34.6999 85.4767 34.7123 84.9014V73.1606C34.7123 72.9375 34.7287 72.7074 34.7123 72.4847C34.7116 72.4749 34.7123 72.4648 34.7123 72.4549C34.7112 72.3778 34.6475 72.3156 34.5686 72.3145H24.7047C24.6258 72.3155 24.5622 72.3778 24.5611 72.4549V85.1919L24.7047 85.0514H16.1336C16.0548 85.0525 15.9911 85.1147 15.99 85.1919V111.577C15.9799 111.695 15.9799 111.814 15.99 111.932C15.9913 111.947 15.9913 111.962 15.99 111.977L16.1336 111.836H10.5313C10.4539 111.839 10.3926 111.901 10.3926 111.977C10.3926 112.053 10.4539 112.115 10.5313 112.117H16.1336C16.2125 112.116 16.2762 112.054 16.2773 111.977V85.5913C16.2874 85.4734 16.2874 85.3549 16.2773 85.2371C16.276 85.222 16.276 85.2069 16.2773 85.1919L16.1336 85.3323H24.7047C24.7836 85.3312 24.8472 85.269 24.8484 85.1919V72.4549L24.7047 72.5954H34.5686L34.425 72.4549V84.874C34.414 85.3946 34.5255 85.9108 34.7508 86.3826C35.1823 87.24 35.9878 87.86 36.9414 88.0686C37.1687 88.1171 37.4006 88.1416 37.6332 88.1419L37.4895 88.0015V103.363C37.4895 103.569 37.471 103.784 37.4895 103.989C37.4903 103.998 37.4895 104.007 37.4895 104.016C37.4921 104.092 37.5556 104.152 37.6332 104.152C37.7107 104.152 37.7742 104.092 37.7768 104.016Z" fill="#0C042E"/>
<path d="M34.6155 81.3991H44.0485L43.9049 81.2586V100.739C43.906 100.816 43.9696 100.878 44.0485 100.879H45.8959C46.5252 100.879 47.1917 100.941 47.818 100.861C48.8654 100.715 49.6454 99.8408 49.6509 98.8063C49.6628 98.1848 49.6509 97.5619 49.6509 96.9403V94.9321L49.5072 95.0726H59.3711L59.2275 94.9321V104.578C59.2286 104.656 59.2923 104.718 59.3711 104.719H62.4357C62.5146 104.718 62.5783 104.656 62.5794 104.578V85.8477L62.4357 85.9882H69.0436L68.9 85.8477V100.739C68.9011 100.816 68.9648 100.878 69.0436 100.879H74.6939L74.5502 100.739V106.358C74.5513 106.435 74.615 106.497 74.6939 106.498H81.589C81.6679 106.497 81.7316 106.435 81.7327 106.358V98.7719L81.589 98.9124C84.1988 98.8856 86.3064 96.8208 86.3293 94.2686C86.341 92.7741 86.3293 91.279 86.3293 89.7844V88.0017L86.1857 88.1422H94.2779C94.3568 88.1411 94.4205 88.0789 94.4216 88.0017C94.4216 86.6676 94.4102 85.333 94.4216 83.9989C94.4224 82.7364 95.0899 81.5639 96.1869 80.8982C97.0276 80.3954 97.9194 80.3689 98.8653 80.3689H101.317C101.394 80.3663 101.456 80.3042 101.456 80.2285C101.456 80.1527 101.394 80.0906 101.317 80.088H99.0415C98.123 80.088 97.2413 80.0724 96.3867 80.4722C95.1968 81.0372 94.3693 82.1408 94.176 83.4205C94.0736 84.122 94.1343 84.8647 94.1343 85.5703V88.0017L94.2779 87.8612H86.1857C86.1068 87.8623 86.0432 87.9246 86.042 88.0017V92.0053C86.042 93.566 86.2434 95.2403 85.3426 96.6207C84.5201 97.8692 83.1075 98.6259 81.5889 98.6314C81.51 98.6325 81.4464 98.6948 81.4452 98.7719V106.358L81.5889 106.217H74.6937L74.8374 106.358V100.739C74.8363 100.662 74.7726 100.599 74.6937 100.598H69.0435L69.1872 100.739V85.8477C69.1861 85.7705 69.1224 85.7083 69.0435 85.7072H62.4356C62.3567 85.7083 62.2931 85.7705 62.2919 85.8477V104.578L62.4356 104.438H59.371L59.5147 104.578V94.9321C59.5135 94.855 59.4499 94.7927 59.371 94.7916H49.5072C49.4283 94.7927 49.3647 94.855 49.3635 94.9321V98.5991C49.3777 98.8799 49.3405 99.1608 49.2538 99.4288C49.0293 100.021 48.5035 100.454 47.8687 100.57C47.3014 100.672 46.6658 100.598 46.0937 100.598H44.0485L44.1922 100.739V81.2586C44.191 81.1815 44.1274 81.1193 44.0485 81.1182H34.6155C34.538 81.1207 34.4766 81.1828 34.4766 81.2587C34.4766 81.3345 34.538 81.3966 34.6155 81.3991Z" fill="#0C042E"/>
<path d="M108.452 35.2276C108.452 35.2276 114.032 35.1276 114.868 41.3151C115.55 46.3534 109.467 49.6926 104.604 47.9C103.453 47.4765 102.338 46.965 101.27 46.37V43.869L109.936 36.0882" fill="#0C042E"/>
<path d="M108.452 35.5084C108.667 35.5088 108.883 35.5242 109.096 35.5546C109.011 35.5439 109.157 35.5634 109.184 35.5674C109.243 35.5765 109.303 35.5862 109.362 35.5968C109.485 35.6187 109.608 35.6438 109.73 35.6721C110.02 35.7391 110.305 35.824 110.584 35.9263C112.102 36.4959 113.322 37.6391 113.968 39.0983C114.438 40.1238 114.663 41.2404 114.626 42.3635C114.567 43.3649 114.222 44.3299 113.628 45.1479C112.418 46.8421 110.318 47.8603 108.246 48.0662C107.134 48.1817 106.009 48.0643 104.947 47.7218C103.783 47.3267 102.659 46.8258 101.59 46.2258C101.531 46.1933 101.472 46.1608 101.414 46.1271L101.556 46.3698V43.8689L101.472 44.0675L104.4 41.4389L109.067 37.2488L110.139 36.2867C110.412 36.0416 110.005 35.645 109.733 35.8893L108.098 37.3569L104.696 40.4113L101.717 43.0857C101.509 43.2728 101.286 43.452 101.088 43.65C101 43.7514 100.962 43.885 100.982 44.0164V46.0704C100.982 46.2754 100.941 46.496 101.144 46.624C101.393 46.7805 101.666 46.9084 101.928 47.0405C102.492 47.3245 103.067 47.5869 103.652 47.8276C104.729 48.2725 105.805 48.6023 106.98 48.6602C108.011 48.7087 109.042 48.5779 110.026 48.2738C111.896 47.697 113.633 46.484 114.543 44.7538C115.516 42.9026 115.313 40.7293 114.485 38.861C113.856 37.423 112.708 36.2617 111.259 35.5983C110.422 35.2141 109.517 34.9936 108.593 34.9492C108.546 34.9474 108.499 34.9457 108.452 34.9465C108.082 34.9526 108.081 35.5146 108.452 35.5084L108.452 35.5084Z" fill="black"/>
<path d="M96.1951 49.6505L89.1084 73.9068C87.817 77.2295 82.4048 78.7768 77.8883 75.6757C76.4523 74.9165 75.1401 73.9523 73.9947 72.815L63.041 61.9975C63.8615 61.2896 68.116 58.7231 68.9982 57.7145C70.3779 56.1372 71.4542 54.5828 72.0503 53.3862L81.2552 61.1673L87.0435 48.1676C88.4554 44.9966 91.8298 43.1094 95.3405 43.5273L98.9808 43.9607" fill="#543EE9"/>
<path d="M95.9169 49.5762L95.2639 51.8115L93.6774 57.2414L91.7229 63.9311L89.9511 69.9961L88.9145 73.5442C88.3511 75.4724 86.3798 76.6237 84.4592 76.9617C82.7149 77.243 80.9243 76.9752 79.3456 76.1969C78.9142 75.9806 78.4962 75.7397 78.0938 75.4754C77.6676 75.205 77.2122 74.9786 76.7871 74.7039C75.9048 74.133 75.0824 73.4782 74.3318 72.7492C73.4691 71.9123 72.6209 71.0605 71.7659 70.2161L66.8644 65.3755L63.4175 61.9715L63.243 61.7991V62.1964C63.6658 61.8616 64.1071 61.5496 64.5648 61.2618C65.2524 60.8014 65.9442 60.347 66.6287 59.8821C67.2745 59.4435 67.9193 58.9994 68.5305 58.5152C69.207 57.9793 69.7296 57.3091 70.2576 56.6357C71.0405 55.6681 71.7237 54.6273 72.2972 53.5284L71.846 53.5853L74.9535 56.2121L79.9094 60.4015L81.0509 61.3664C81.1144 61.4268 81.2026 61.4556 81.2905 61.4445C81.3784 61.4334 81.4563 61.3837 81.5021 61.3095L82.8129 58.3657L85.3809 52.5983L87.1945 48.5254C87.5293 47.7352 87.9871 47.0003 88.5515 46.3469C89.5888 45.1852 90.9628 44.3594 92.4911 43.9791C93.6181 43.7004 94.7351 43.7368 95.8761 43.8727L98.7564 44.2155L98.9797 44.2421C99.138 44.2411 99.266 44.1159 99.267 43.9611C99.2635 43.8074 99.1369 43.6837 98.9797 43.6802L96.5218 43.3876C95.5173 43.268 94.526 43.127 93.5109 43.2346C90.5473 43.5542 87.9822 45.3932 86.7789 48.0609C86.2643 49.213 85.751 50.3657 85.2391 51.519L82.6321 57.3739L81.5738 59.7507C81.3948 60.1527 81.1769 60.5556 81.0306 60.9705C81.024 60.9893 81.0142 61.0076 81.006 61.0259L81.4572 60.969L78.3497 58.3421L73.3938 54.1527L72.2524 53.1879C72.1888 53.1275 72.1006 53.0988 72.0127 53.1099C71.9249 53.121 71.847 53.1706 71.8011 53.2447C71.3034 54.204 70.7182 55.1175 70.0526 55.974C69.5157 56.6841 68.9709 57.425 68.2754 57.9962C67.0736 58.983 65.7265 59.8075 64.4324 60.6713C63.8781 61.016 63.3453 61.3926 62.8367 61.7991C62.7263 61.9095 62.7263 62.0859 62.8367 62.1964L65.3986 64.7266L70.3425 69.609L73.6705 72.8957C74.6182 73.843 75.6743 74.6804 76.818 75.3913C77.2469 75.6546 77.6869 75.8957 78.1135 76.162C78.5355 76.4261 78.9777 76.6581 79.4362 76.8558C80.28 77.2209 81.174 77.463 82.0897 77.5744C83.7219 77.7857 85.3809 77.4944 86.836 76.741C87.9414 76.1475 88.9823 75.1714 89.3864 73.9745C89.6618 73.1591 89.8709 72.3162 90.1121 71.4907L91.7539 65.8711L93.7371 59.0832L95.4826 53.1085L96.4268 49.8766L96.471 49.7256C96.5727 49.3773 96.0184 49.2286 95.9169 49.5762L95.9169 49.5762Z" fill="black"/>
<path d="M63.0394 62.0207C63.5061 62.41 64.8216 61.7104 66.4023 60.3426L64.3399 58.3008C63.1124 60.1403 62.5544 61.6162 63.0394 62.0207Z" fill="black"/>
<path d="M62.8358 62.2189C63.2899 62.5773 63.9022 62.3471 64.3651 62.1236C65.1887 61.7259 65.9201 61.1312 66.605 60.5408C66.7154 60.4304 66.7154 60.2539 66.605 60.1435L64.5426 58.1016C64.479 58.0414 64.3908 58.0128 64.3029 58.0238C64.2151 58.0349 64.1372 58.0845 64.0913 58.1585C63.5361 58.9432 63.0845 59.7933 62.7472 60.6887C62.5921 61.1429 62.41 61.8442 62.8358 62.2189C63.1101 62.4602 63.5177 62.0641 63.2421 61.8216C63.2255 61.8082 63.2103 61.7933 63.1967 61.777C63.2189 61.8067 63.2141 61.7998 63.1975 61.7728C63.1903 61.7612 63.1673 61.7132 63.1915 61.7696C63.1836 61.7515 63.1772 61.7327 63.1725 61.7135C63.1509 61.6353 63.1447 61.5537 63.1541 61.4731C63.1818 61.21 63.2471 60.952 63.3483 60.7068C63.673 59.9087 64.0887 59.149 64.5876 58.4421L64.1363 58.499L66.1988 60.5408V60.1434C65.6025 60.6834 64.9462 61.1564 64.2422 61.5535C64.0279 61.6751 63.7972 61.7669 63.5569 61.8261C63.4782 61.8479 63.3957 61.8538 63.3145 61.8433C63.3736 61.849 63.283 61.8346 63.2604 61.8277C63.31 61.8428 63.1966 61.7856 63.2422 61.8216C63.128 61.7165 62.95 61.7165 62.8359 61.8216C62.7246 61.9317 62.7246 62.1088 62.8358 62.2189Z" fill="black"/>
<path d="M68.9917 57.735C70.3691 56.1557 71.443 54.5997 72.0373 53.4022L70.3264 51.9656L67.5122 49.6025L62.0449 56.0297L64.3386 58.3006L66.401 60.3424C67.3249 59.5325 68.1905 58.6613 68.9917 57.735Z" fill="#F7FFF4"/>
<path d="M69.1962 57.9338C70.3679 56.5865 71.4895 55.1393 72.2867 53.5443C72.3501 53.4335 72.3319 53.2952 72.2418 53.2038L68.5156 50.0749L67.7166 49.4041C67.6036 49.2963 67.4233 49.2963 67.3103 49.4041L65.4685 51.5693L62.5171 55.0389L61.8431 55.8313C61.7346 55.9425 61.7346 56.1174 61.8431 56.2286L65.275 59.6262L66.1992 60.5412C66.3128 60.6477 66.492 60.6477 66.6055 60.5412C67.529 59.731 68.3946 58.8598 69.1962 57.9338C69.4353 57.6604 69.0307 57.2611 68.7899 57.5365C67.9883 58.4624 67.1227 59.3336 66.1993 60.1437H66.6056L63.1098 56.6829L62.2494 55.8311V56.2285L64.0913 54.0632L67.0427 50.5936L67.7167 49.8013H67.3104L70.7842 52.7182L71.8355 53.601L71.7906 53.2605C71.0145 54.8134 69.9308 56.2245 68.7899 57.5364C68.5517 57.8104 68.9562 58.2098 69.1962 57.9338Z" fill="black"/>
<path d="M69.2146 51.0321L67.519 49.6132L66.6941 45.2286C66.4677 43.8297 65.4596 42.6724 64.0833 42.2316L58.1128 41.6377C58.1128 41.6377 55.6445 42.0318 57.4942 44.3776C57.4942 44.3776 56.1558 45.3058 57.6639 46.9395C57.0205 47.7493 57.462 49.4246 58.1479 49.658C57.6677 50.58 58.1785 51.4534 59.5111 51.6916L60.6646 52.0859L61.1708 54.3135C61.3406 55.0605 61.7255 55.7443 62.28 56.2841L63.6021 57.5713" fill="#F7FFF4"/>
<path d="M69.4172 50.8327L67.8795 49.5459C67.8424 49.5103 67.8029 49.4771 67.7611 49.4468C67.6574 49.3829 67.8182 49.4831 67.7951 49.5357C67.8084 49.5054 67.7713 49.4094 67.7654 49.3781L67.6045 48.5231L67.135 46.0273C67.016 45.3951 66.9305 44.7504 66.6631 44.1578C66.4014 43.5804 66.0028 43.0724 65.5003 42.6756C65.2514 42.4769 64.9798 42.3072 64.6909 42.1697C64.4966 42.064 64.2863 41.9893 64.0679 41.9484C63.5641 41.8915 63.0584 41.848 62.5539 41.7978L59.9356 41.5374C59.3533 41.4795 58.7692 41.4019 58.1851 41.3633C57.8424 41.3728 57.5101 41.4812 57.2302 41.6748C56.9379 41.8467 56.7133 42.1099 56.5927 42.4219C56.4395 42.8452 56.5473 43.3013 56.7277 43.6981C56.8671 43.9903 57.0409 44.2658 57.2455 44.5187L57.3486 44.1343C57.0547 44.3468 56.8381 44.6458 56.7305 44.9874C56.476 45.7839 56.936 46.5588 57.4602 47.1374L57.4153 46.7969C57.0268 47.3073 57.0028 48.0141 57.1355 48.6144C57.2515 49.139 57.5272 49.7242 58.071 49.928L57.8993 49.5153C57.6711 49.9161 57.6271 50.3926 57.7782 50.8268C57.9616 51.2476 58.3076 51.5803 58.7409 51.7525C59.0714 51.8957 59.4293 51.96 59.7704 52.0766L60.5876 52.356L60.387 52.1598L60.8698 54.2846C60.9978 54.8853 61.2521 55.4534 61.6163 55.953C61.889 56.2934 62.1887 56.6123 62.5125 56.9068L63.3983 57.7692C63.5115 57.8726 63.6882 57.8697 63.7978 57.7625C63.9073 57.6554 63.9104 57.4826 63.8046 57.3718L62.6011 56.2001C62.0091 55.6404 61.5995 54.922 61.4239 54.1352L61.0018 52.2775C60.9512 52.0552 60.9365 51.8848 60.6859 51.7955C60.3761 51.6851 60.0631 51.5826 59.7519 51.4762C59.3391 51.3351 58.8992 51.2913 58.5658 50.9828C58.2361 50.6741 58.1657 50.1846 58.3954 49.7989C58.4382 49.7232 58.4436 49.6326 58.4103 49.5525C58.377 49.4724 58.3084 49.4112 58.2237 49.3862C57.897 49.2637 57.7407 48.7228 57.6787 48.4136C57.5627 47.9569 57.6471 47.4737 57.9114 47.0805C57.9763 46.97 57.9579 46.8308 57.8665 46.7401C57.4697 46.3021 57.0823 45.7079 57.2957 45.1033C57.3463 44.9689 57.422 44.8449 57.519 44.7376C57.5554 44.6981 57.5951 44.6626 57.6341 44.6256C57.6793 44.5828 57.693 44.5813 57.6386 44.6196C57.7741 44.5401 57.8198 44.3694 57.7417 44.2351C57.4443 43.8532 57.099 43.3799 57.0934 42.8776C57.0855 42.6148 57.2142 42.3658 57.4353 42.2162C57.4317 42.219 57.5104 42.1654 57.554 42.1396C57.6124 42.105 57.6729 42.075 57.7342 42.0458C57.7528 42.0369 57.8179 42.0104 57.7639 42.0321C57.7914 42.0211 57.8191 42.0107 57.8471 42.0007C57.8932 41.9843 57.9398 41.9693 57.9869 41.9558C58.0455 41.9389 58.1103 41.9318 58.1675 41.9118C58.2168 41.8946 58.0644 41.8993 58.1489 41.9217C58.3292 41.9536 58.5117 41.9717 58.6949 41.976L59.6987 42.0758L62.2189 42.3265L63.9749 42.5012C64.2553 42.529 64.5655 42.7224 64.8306 42.8898C65.3356 43.2117 65.7492 43.6531 66.0332 44.173C66.3469 44.7437 66.4317 45.3835 66.5498 46.0115L66.9978 48.3925L67.1788 49.3547C67.1829 49.5173 67.2312 49.6759 67.3186 49.8142C67.5182 50.0025 67.7292 50.1791 67.9504 50.3428L68.8429 51.0897L69.0108 51.2302C69.2904 51.4641 69.6987 51.0685 69.4171 50.8329L69.4172 50.8327Z" fill="black"/>
<path d="M66.6981 39.0675L63.9209 46.9344L63.4562 52.9981C63.4176 53.5019 63.1622 53.9659 62.7535 54.2749C62.3449 54.5839 61.8213 54.7087 61.3131 54.6184C60.399 54.456 59.7562 53.6472 59.8209 52.7409L60.8565 38.2246" fill="black"/>
<path d="M66.4208 38.9924L65.567 41.411L64.1182 45.515L63.6923 46.7215C63.6401 46.8959 63.6119 47.0764 63.6085 47.258L63.3027 51.2465L63.1822 52.8186C63.1328 53.462 62.8181 54.0515 62.1587 54.278C61.6775 54.4392 61.1461 54.3596 60.7364 54.0649C60.3266 53.7702 60.0906 53.2979 60.1045 52.8007C60.1102 52.6351 60.1271 52.4694 60.1388 52.3043L60.35 49.3438L60.665 44.9288L60.9659 40.7118L61.1353 38.3373L61.1434 38.2242C61.1691 37.8633 60.5944 37.8649 60.5688 38.2242L60.4455 39.9526L60.1582 43.9793L59.8296 48.5864L59.5869 51.9877C59.5699 52.2255 59.552 52.4633 59.536 52.7011C59.4583 53.6563 60.0632 54.5381 60.9964 54.8299C61.9297 55.1217 62.9455 54.7468 63.4489 53.9247C63.7255 53.4765 63.7443 52.9822 63.7828 52.4795L64.1053 48.2724C64.1385 47.8402 64.1886 47.4057 64.2049 46.9725C64.208 46.8909 64.2096 46.995 64.1996 47.0031C64.2146 46.9909 64.2232 46.9361 64.2295 46.9185L64.3815 46.4879L65.7211 42.6932L66.9084 39.3299L66.9748 39.1418C67.0958 38.7993 66.5409 38.6521 66.4208 38.9924L66.4208 38.9924Z" fill="black"/>
<path d="M59.92 43.7207L62.7447 45.1029C63.0827 45.2228 63.6975 46.5907 63.7469 46.9478C63.8164 47.3436 63.5903 47.7322 63.2069 47.876C63.8867 48.4817 64.2812 49.4976 63.4474 49.6405C63.956 50.4922 64.1618 51.2514 63.3156 51.3243C64.3491 52.3128 63.4494 52.8903 62.9259 52.7634L58.957 51.5482" fill="#F7FFF4"/>
<path d="M59.7743 43.9629L61.8781 44.9924C62.1206 45.111 62.3717 45.2202 62.6087 45.3492C62.6603 45.3741 62.7038 45.4125 62.7346 45.4601C62.8212 45.571 62.8979 45.6891 62.9636 45.813C63.1102 46.0691 63.2371 46.3356 63.3431 46.6102C63.3869 46.7221 63.4244 46.8363 63.4554 46.9521C63.4621 46.9776 63.465 47.0035 63.4703 47.0292C63.447 46.917 63.4695 47.0154 63.4686 47.05C63.481 47.3114 63.3148 47.5493 63.0612 47.6331C62.9849 47.6774 62.9336 47.7537 62.9223 47.8398C62.9109 47.926 62.9407 48.0125 63.0031 48.0743C63.2431 48.2933 64.05 49.233 63.3703 49.3692C63.2849 49.3932 63.2155 49.4542 63.182 49.5348C63.1485 49.6153 63.1546 49.7064 63.1986 49.7819C63.3926 50.0635 63.5282 50.3795 63.5977 50.7121C63.6241 50.9252 63.5353 51.019 63.3149 51.0429C63.2006 51.0465 63.099 51.1153 63.0552 51.2187C63.0114 51.322 63.0335 51.4409 63.1118 51.5226C63.2842 51.6924 63.6093 52.0175 63.476 52.2903C63.3918 52.4188 63.2472 52.4973 63.0912 52.4993C62.8907 52.4719 62.6948 52.4187 62.5085 52.3412L59.8075 51.5142L59.0327 51.2769C58.679 51.1687 58.5277 51.7109 58.88 51.8188L61.1755 52.5216L62.5509 52.9428C62.8547 53.0358 63.126 53.1115 63.4456 52.9952C63.7544 52.8934 63.9868 52.642 64.0594 52.3314C64.1539 51.8627 63.8361 51.4384 63.5181 51.1252L63.3149 51.6049C63.7627 51.5563 64.1424 51.3361 64.1741 50.8586C64.2058 50.3812 63.9298 49.8966 63.6948 49.4983L63.5231 49.911C63.7449 49.8747 63.9418 49.7507 64.0674 49.5682C64.1931 49.3857 64.2365 49.1607 64.1874 48.946C64.1093 48.4554 63.7722 48.0079 63.4094 47.677L63.3512 48.1183C63.8612 47.9005 64.1402 47.3584 64.0153 46.8281C63.9481 46.5659 63.8531 46.3112 63.7318 46.0683C63.6084 45.7788 63.4565 45.5017 63.2783 45.2409C63.0655 44.943 62.8291 44.8306 62.5114 44.6751L61.1112 43.99L60.0644 43.4778C59.7346 43.3164 59.4432 43.801 59.7743 43.963L59.7743 43.9629Z" fill="black"/>
<path d="M87.9588 61.0977L83.0751 72.689C80.9682 76.8097 80.858 76.5439 78.404 79.1284L75.8926 81.7734L87.7676 84.3957L94.95 63.6045" fill="#543EE9"/>
<path d="M87.6815 61.0234L86.4667 63.9067L84.1685 69.3614L83.2516 71.5375C83.1039 71.8882 82.9705 72.2495 82.8067 72.5935C82.5529 73.1263 82.2586 73.6514 81.9759 74.1725C81.7014 74.6786 81.4182 75.1815 81.1028 75.6646C80.6154 76.3782 80.058 77.0435 79.4386 77.6513C78.2221 78.8998 77.0262 80.1671 75.8262 81.4308L75.6892 81.5752C75.6185 81.6465 75.5911 81.7489 75.617 81.845C75.643 81.941 75.7184 82.0168 75.816 82.0448L79.8496 82.9355L86.2249 84.3433L87.691 84.6671C87.8434 84.7042 87.9989 84.6179 88.0444 84.4708L88.763 82.3908L90.4738 77.4385L92.5489 71.4317L94.3429 66.2386L94.9326 64.5315C95.0261 64.2608 95.136 63.9904 95.2147 63.715C95.2181 63.7031 95.2228 63.6914 95.2269 63.6797C95.3455 63.3363 94.7907 63.189 94.6728 63.5303L93.9542 65.6104L92.2434 70.5626L90.1683 76.5695L88.3743 81.7625L87.7845 83.4697C87.6761 83.7368 87.5819 84.0093 87.5025 84.2861C87.4991 84.2981 87.495 84.3099 87.4903 84.3215L87.8437 84.1252L83.8101 83.2345L77.4348 81.8267L75.9687 81.5029L76.0954 81.9725C77.1568 80.8547 78.2095 79.7285 79.2844 78.623C79.9688 77.9609 80.6095 77.2569 81.2027 76.5154C81.929 75.5479 82.4821 74.4582 83.035 73.3909C83.5741 72.35 83.9903 71.2487 84.4446 70.1705L86.7427 64.7161L87.7084 62.424C87.8756 62.0273 88.0638 61.6331 88.2119 61.2291C88.2189 61.21 88.2277 61.1915 88.2356 61.1727C88.2766 61.0232 88.1872 60.8693 88.035 60.8271C87.8825 60.7896 87.7268 60.8761 87.6815 61.0233V61.0234Z" fill="#543EE9"/>
<path d="M65.4332 46.7369L62.5449 44.8446C62.3463 44.7145 62.1021 44.6691 61.8687 44.719C61.6352 44.7688 61.4326 44.9096 61.3075 45.1088C61.0968 45.4445 61.1466 45.8774 61.4284 46.1589L63.8231 48.5515C62.8277 50.1348 62.9588 52.1594 64.1505 53.6073" fill="#F7FFF4"/>
<path d="M65.5771 46.4943C64.6209 45.8678 63.6755 45.2213 62.7066 44.6137C62.2514 44.3146 61.6445 44.3662 61.249 44.7378C60.8534 45.1093 60.7761 45.7002 61.0633 46.1571C61.1885 46.3273 61.3319 46.4839 61.4911 46.6243L62.2546 47.3872L63.6189 48.7502L63.574 48.4097C63.2452 48.9177 63.028 49.487 62.9361 50.0814C62.7212 51.3821 63.0711 52.7115 63.9014 53.7491C64.1216 54.0339 64.6208 53.7542 64.3976 53.4655C63.6534 52.5029 63.2734 51.3347 63.5083 50.1327C63.5951 49.621 63.7862 49.1315 64.0702 48.6934C64.135 48.5828 64.1166 48.4437 64.0253 48.3529L61.6998 46.0295C61.4864 45.8164 61.3762 45.5289 61.5546 45.2506C61.6468 45.1134 61.7931 45.0199 61.9586 44.9924C62.1241 44.9649 62.2939 45.006 62.4272 45.1058C62.9022 45.4102 63.3711 45.7242 63.843 46.0333L65.2871 46.9795C65.5952 47.1813 65.8832 46.6948 65.5772 46.4943L65.5771 46.4943Z" fill="black"/>
<path d="M111.012 74.0326L111.017 75.6405C111.022 77.7387 109.592 79.5815 107.525 80.1408L101.635 81.734L102.534 70.9863" fill="black"/>
<path d="M110.725 74.0327C110.727 74.8382 110.81 75.6982 110.648 76.4923C110.366 77.8581 109.444 79.0147 108.158 79.6145C107.584 79.8818 106.926 80.0114 106.315 80.1766L103.472 80.9457L101.559 81.4632L101.922 81.7341L102.227 78.0973L102.711 72.307L102.821 70.9864C102.852 70.626 102.277 70.6279 102.247 70.9864L101.943 74.6232L101.458 80.4135L101.348 81.7341C101.349 81.8215 101.391 81.9036 101.462 81.9566C101.533 82.0095 101.625 82.0274 101.711 82.005L106.311 80.7608C106.937 80.6183 107.553 80.4394 108.156 80.2251C109.539 79.6684 110.603 78.5462 111.065 77.1553C111.395 76.1524 111.302 75.0717 111.3 74.0327C111.294 73.8814 111.167 73.7614 111.012 73.7614C110.858 73.7614 110.731 73.8814 110.725 74.0327H110.725Z" fill="black"/>
<path d="M87.9177 70.0494L68.8535 127.042L84.2809 131.747C84.2809 131.747 97.6074 90.0342 99.1535 83.6339C100.7 77.2335 101.996 68.4707 101.996 68.4707" fill="#543EE9"/>
<path d="M87.6399 69.9745L87.1291 71.5018L85.7389 75.6576L83.6915 81.7785L81.1851 89.2715L78.4497 97.4492L75.6786 105.734L73.095 113.457L70.9195 119.961L69.3494 124.655C69.1026 125.393 68.833 126.127 68.608 126.871C68.5982 126.904 68.5865 126.935 68.5758 126.967C68.5362 127.117 68.6251 127.27 68.7765 127.313L74.0004 128.906L82.2923 131.435L84.2039 132.018C84.3566 132.057 84.513 131.97 84.5573 131.822C84.7287 131.285 84.8999 130.749 85.0707 130.212C85.5278 128.778 85.9842 127.343 86.4399 125.909C87.1018 123.825 87.7625 121.741 88.4219 119.657C89.2112 117.162 89.9984 114.667 90.7837 112.17C91.6163 109.523 92.4459 106.875 93.2724 104.226C94.0637 101.688 94.8505 99.1483 95.6328 96.6075C96.3062 94.4167 96.9726 92.2238 97.6319 90.0289C98.1102 88.4296 98.5857 86.829 99.0311 85.2205C99.6915 82.8349 100.186 80.4074 100.655 77.9799C101.228 75.012 101.741 72.0336 102.196 69.0448C102.222 68.8783 102.247 68.7118 102.272 68.5453C102.324 68.1916 101.771 68.0388 101.718 68.3959C101.39 70.6141 101.016 72.8265 100.62 75.0341C100.067 78.1219 99.4998 81.2266 98.6962 84.2633C98.3205 85.6829 97.9043 87.0925 97.4878 88.5011C96.8722 90.5829 96.2451 92.6615 95.6065 94.7367C94.8446 97.2275 94.0763 99.7163 93.3015 102.203C92.4813 104.841 91.6571 107.478 90.8291 110.113C90.0296 112.66 89.2277 115.205 88.4234 117.75C87.7237 119.964 87.0226 122.179 86.3199 124.392C85.8073 126.007 85.2938 127.622 84.7796 129.237C84.5339 130.008 84.2301 130.783 84.0361 131.569C84.0275 131.604 84.0141 131.638 84.0032 131.672L84.3566 131.476L79.1326 129.883L70.8407 127.354L68.9292 126.771L69.1298 127.117L69.6407 125.589L71.0308 121.434L73.0783 115.313L75.5847 107.82L78.3201 99.6421L81.0913 91.3578L83.6749 83.6341L85.8504 77.1304L87.4205 72.4365C87.6672 71.6988 87.9368 70.9645 88.1619 70.2201C88.1716 70.1878 88.1833 70.1559 88.194 70.1239C88.3093 69.7794 87.7546 69.6318 87.6399 69.9745Z" fill="black"/>
<path d="M106.376 67.8604L108.623 77.8783C109.31 80.9389 109.55 84.079 109.337 87.2054L108.403 100.9C114.316 104.033 128.642 113.952 128.642 113.952L119.964 127.284L104.085 117.685C98.1692 114.109 94.172 108.158 93.1646 101.428L90.8223 85.6095L93.3447 71.9195" fill="#543EE9"/>
<path d="M106.097 67.935L107.279 73.205C107.709 75.1214 108.186 77.0345 108.554 78.9635C109.036 81.4912 109.213 84.0653 109.082 86.6333C109.052 87.2094 109.008 87.7851 108.969 88.3607L108.489 95.4063L108.25 98.9027C108.207 99.537 108.14 100.175 108.12 100.81C108.119 100.84 108.116 100.87 108.114 100.9C108.113 101 108.168 101.093 108.256 101.143C111.511 102.87 114.602 104.915 117.679 106.924C120.701 108.896 123.7 110.903 126.675 112.944C127.283 113.36 127.889 113.777 128.495 114.195L128.392 113.81L125.45 118.33L120.783 125.5L119.714 127.142L120.107 127.041L116.582 124.91L109.6 120.69L104.566 117.646C101.817 116.02 99.4289 113.872 97.5423 111.328C95.3695 108.338 93.9579 104.883 93.4248 101.252C93.1599 99.4695 92.8959 97.6867 92.6328 95.9037L91.4833 88.1401L91.1445 85.8522C91.1327 85.7724 91.1245 85.6911 91.1089 85.612C91.077 85.4497 91.1408 85.651 91.0978 85.683C91.1535 85.6415 91.1636 85.3258 91.1753 85.2623L92.3749 78.7518L93.5539 72.3527L93.62 71.9942C93.6851 71.6407 93.1315 71.489 93.0659 71.8449L92.1708 76.703L90.7962 84.163L90.6095 85.1764C90.572 85.3185 90.5465 85.4634 90.5332 85.6096C90.5428 85.7445 90.5624 85.8786 90.5918 86.0107L90.73 86.9444L91.7928 94.122L92.7813 100.798C92.9001 101.599 93.0234 102.399 93.2043 103.19C94.6081 109.316 98.4787 114.63 103.94 117.929C105.165 118.672 106.391 119.413 107.618 120.152L114.666 124.412L119.564 127.373L119.817 127.526C119.955 127.602 120.128 127.557 120.21 127.425L123.153 122.905L127.82 115.736L128.889 114.094C128.965 113.959 128.92 113.79 128.785 113.709C127.061 112.516 125.327 111.334 123.584 110.166C120.223 107.902 116.842 105.661 113.4 103.515C111.809 102.523 110.206 101.538 108.546 100.657L108.689 100.9L109.001 96.3225L109.502 88.9701C109.541 88.3953 109.58 87.8205 109.619 87.2457C109.768 85.0805 109.701 82.9063 109.419 80.7538C109.121 78.4889 108.552 76.2591 108.052 74.0305L106.677 67.9025L106.651 67.7856C106.572 67.4325 106.018 67.5819 106.097 67.935L106.097 67.935Z" fill="black"/>
<path d="M125.276 111.793L124.412 113.122L122.347 116.296L119.838 120.153L117.678 123.474C117.327 124.013 116.939 124.542 116.62 125.1C116.615 125.108 116.61 125.115 116.605 125.123C116.406 125.429 116.903 125.711 117.101 125.407L117.966 124.078L120.03 120.904L122.539 117.047L124.7 113.726C125.05 113.187 125.438 112.658 125.757 112.1C125.762 112.092 125.767 112.084 125.773 112.077C125.972 111.771 125.475 111.488 125.276 111.793L125.276 111.793Z" fill="black"/>
<path d="M91.7034 71.6729L90.6691 76.6201L89.9623 80.0008C89.8461 80.5565 89.7066 81.113 89.6189 81.6741C89.5166 82.3173 89.549 82.9741 89.7141 83.6047C89.7914 83.8713 89.883 84.1338 89.9885 84.3909L90.5561 85.871C90.6848 86.2065 91.2404 86.0612 91.1102 85.7216L90.6214 84.447C90.3715 83.7953 90.1391 83.159 90.1329 82.4499C90.1268 81.7592 90.326 81.0608 90.4668 80.3873L91.8617 73.7155L92.2575 71.8224C92.3313 71.4694 91.7775 71.3183 91.7034 71.673L91.7034 71.6729Z" fill="black"/>
<path d="M74.8089 40.4504C74.9919 39.5725 74.9826 38.6666 74.7816 37.7924C74.5762 36.9146 74.0802 36.1277 73.3706 35.5538C72.741 35.0679 72.0489 34.8912 71.3332 34.7297C70.9982 34.6541 70.6581 34.5818 70.3168 34.4828C69.0115 34.104 67.7227 33.6486 66.4435 33.1936C64.2871 32.4266 62.1578 31.5831 60.0777 30.635C57.0631 29.2609 54.1226 27.6724 51.4658 25.7062C48.8967 23.805 47.2592 21.7621 45.6186 19.1644C44.9887 18.1671 44.7398 16.9015 43.8179 16.1522C43.4586 15.866 43.0294 15.676 42.5724 15.601C41.8334 15.4834 41.0754 15.5818 40.3933 15.8838C37.802 17.0121 36.5281 19.9719 35.2862 22.2859C33.9153 24.8218 32.7663 27.4667 31.8517 30.1923C31.1512 32.2862 30.6209 34.4311 30.2659 36.6068C29.9399 38.6339 29.5003 40.8499 29.9258 42.8712C30.0963 43.6808 30.3679 44.4877 30.8767 45.1477C31.3855 45.8076 32.1611 46.3063 33.0055 46.341C34.1029 46.3861 35.0633 45.6814 35.9518 45.0498C36.2935 44.7897 36.6653 44.5697 37.0595 44.3945C39.9712 43.214 43.1364 42.5293 46.2381 42.0532C53.5617 40.9291 61.2012 41.3292 68.3885 43.0095L69.5484 43.2807C70.7182 43.5542 72.0246 43.8104 73.0635 43.2177C74.0781 42.6388 74.6051 41.5328 74.8089 40.4504Z" fill="white"/>
<path d="M75.0851 40.5255C75.4387 38.5957 75.0996 36.3564 73.324 35.1748C72.4615 34.6008 71.4129 34.5007 70.435 34.2243C69.3335 33.9131 68.2511 33.5356 67.1731 33.155C62.9739 31.6725 58.8351 29.9627 55.005 27.7023C53.2233 26.6508 51.4747 25.4929 49.9538 24.0973C48.5914 22.8183 47.3924 21.3829 46.3828 19.8222C46.1291 19.4401 45.8669 19.0579 45.6532 18.6525C45.447 18.2612 45.279 17.8524 45.0891 17.4536C44.7082 16.6537 44.1957 15.9076 43.3421 15.5407C41.5569 14.7736 39.6078 15.7137 38.3391 16.9652C37.1385 18.1493 36.3385 19.6576 35.5711 21.1283C34.6256 22.9404 33.6857 24.7455 32.8907 26.6276C32.0159 28.6864 31.2952 30.8048 30.7344 32.9658C30.4563 34.0472 30.2235 35.1386 30.0362 36.2398C29.8581 37.2947 29.6746 38.352 29.5587 39.4154C29.4215 40.4847 29.4317 41.5672 29.5891 42.6339C29.7509 43.6027 30.0672 44.5893 30.692 45.3715C31.2496 46.0694 32.0841 46.5838 33.0046 46.6223C34.0225 46.6651 34.9324 46.1097 35.7282 45.5532C36.1437 45.2311 36.588 44.9462 37.0557 44.702C37.5633 44.4805 38.0823 44.2848 38.6106 44.1156C39.6359 43.7644 40.6802 43.4674 41.7343 43.2112C43.9092 42.688 46.1162 42.3015 48.3417 42.0542C52.8237 41.557 57.3504 41.583 61.8262 42.1319C64.064 42.4061 66.2844 42.8026 68.4769 43.3196C69.4769 43.5534 70.5014 43.8581 71.538 43.8593C72.4703 43.8808 73.3663 43.5062 73.9944 42.8322C74.5655 42.1745 74.9426 41.3771 75.085 40.5256C75.1536 40.1722 74.5999 40.0207 74.5309 40.3762C74.37 41.2055 74.0412 42.0329 73.4012 42.6223C72.7041 43.2642 71.7876 43.3687 70.8719 43.2533C69.8365 43.1229 68.8207 42.8143 67.8043 42.5887C66.7418 42.3529 65.6732 42.1455 64.5987 41.9667C60.2819 41.2408 55.8954 40.9921 51.5218 41.2252C49.354 41.3482 47.1954 41.594 45.0567 41.9612C42.9258 42.3051 40.825 42.8088 38.773 43.4676C37.7886 43.7931 36.7896 44.1203 35.9376 44.7147C35.1653 45.2535 34.3506 45.9314 33.3735 46.0479C32.4865 46.1538 31.654 45.6768 31.1239 45.0062C30.511 44.2309 30.231 43.2017 30.1076 42.2439C29.9988 41.2212 30.0168 40.1894 30.1613 39.1709C30.2881 38.1149 30.4681 37.0606 30.6557 36.0133C31.0434 33.8765 31.5979 31.7718 32.3143 29.7178C33.0154 27.7048 33.848 25.7379 34.8069 23.8293C35.2181 23.0076 35.6564 22.1993 36.0817 21.3844C36.4567 20.6661 36.837 19.9492 37.2684 19.2612C38.0989 17.9369 39.2056 16.583 40.7541 16.0438C41.6501 15.7318 42.729 15.7228 43.5264 16.2859C44.2256 16.7795 44.5442 17.629 44.8828 18.3699C45.2803 19.1847 45.7506 19.9636 46.2884 20.6975C46.7886 21.422 47.3265 22.1209 47.9 22.7914C49.1382 24.2021 50.5534 25.4543 52.1121 26.5186C55.5922 28.9496 59.4798 30.7982 63.4339 32.3646C65.4905 33.1794 67.5812 33.944 69.6991 34.5927C70.2374 34.7576 70.7787 34.8916 71.3276 35.0172C71.7812 35.1052 72.2226 35.2455 72.6424 35.435C73.4619 35.86 74.0819 36.5779 74.373 37.4391C74.6838 38.3884 74.7383 39.4002 74.5312 40.3761C74.4663 40.7297 75.0199 40.8814 75.0851 40.5255Z" fill="black"/>
<path d="M41.0411 25.417C40.9272 25.4804 40.8092 25.5366 40.688 25.5853C39.9646 25.8561 39.2231 26.0784 38.4689 26.2509C36.8596 26.62 35.2072 26.7781 33.5552 26.7208C33.2018 26.6965 32.8517 26.6388 32.5097 26.5485L30.8123 26.1571C30.4748 26.0793 30.1098 26.0033 29.7905 26.1358C29.1796 26.3894 29.0157 27.3592 28.8095 27.9064C28.5049 28.7144 28.0961 29.3151 28.0941 30.2336C28.0723 30.4539 28.1352 30.6743 28.2707 30.8516C28.3717 30.9442 28.4912 31.0154 28.6216 31.0608C30.5705 31.8886 32.6177 33.3286 34.2165 34.729C35.1888 35.5857 36.0864 36.52 36.9 37.5224C37.0221 37.6734 37.1439 37.8252 37.2631 37.9788C38.503 35.942 39.4329 33.7394 40.0236 31.4405C40.533 29.4637 40.8733 27.4489 41.0411 25.417Z" fill="#543EE9"/>
<path d="M40.8961 25.1751C40.4536 25.3892 39.9905 25.5599 39.5136 25.6848C39.0257 25.8308 38.532 25.9558 38.0323 26.0596C37.0191 26.2711 35.9894 26.3978 34.9543 26.4383C34.4475 26.466 33.9395 26.4643 33.433 26.4332C32.9171 26.3671 32.407 26.263 31.9071 26.1218C31.402 25.981 30.8882 25.8716 30.369 25.7941C29.9746 25.7383 29.5764 25.8672 29.2941 26.1422C28.8153 26.632 28.7237 27.3571 28.4808 27.9653C28.169 28.7461 27.7514 29.5 27.8103 30.3674C27.794 30.8173 28.0986 31.2182 28.5438 31.333C28.9707 31.5178 29.3877 31.7238 29.7957 31.9458C30.6595 32.4206 31.4895 32.952 32.28 33.5363C34.0672 34.8436 35.6607 36.3867 37.015 38.1215C37.0682 38.2055 37.1621 38.2566 37.2631 38.2566C37.3642 38.2566 37.458 38.2055 37.5112 38.1215C39.3356 35.1703 40.3978 31.8351 40.9508 28.4436C41.1145 27.4399 41.2368 26.43 41.3284 25.4177C41.361 25.0575 40.7862 25.0597 40.7538 25.4177C40.4453 28.8271 39.7598 32.2411 38.3271 35.3806C37.9421 36.2254 37.5039 37.046 37.015 37.8377H37.5112C36.3491 36.3385 35.0114 34.9775 33.5254 33.7826C32.0809 32.5923 30.4805 31.5957 28.7665 30.819C28.5807 30.738 28.4356 30.6726 28.3963 30.4624C28.3652 30.244 28.3714 30.022 28.4146 29.8055C28.493 29.4187 28.6192 29.0426 28.7905 28.6857C28.9426 28.3546 29.0763 28.0156 29.1909 27.6704C29.2709 27.3662 29.3824 27.0708 29.5236 26.7886C29.6523 26.491 29.9663 26.3121 30.2945 26.3494C30.782 26.3848 31.2796 26.5542 31.7544 26.6637C32.2536 26.7955 32.7599 26.9007 33.2708 26.9786C33.7618 27.0243 34.2555 27.0339 34.7479 27.0073C35.8626 26.975 36.9723 26.8475 38.0644 26.6264C38.6043 26.5173 39.1382 26.384 39.6663 26.2267C40.1908 26.0875 40.6999 25.8978 41.1861 25.6604C41.5113 25.4881 41.2216 25.0028 40.8961 25.1751Z" fill="black"/>
<path d="M40.928 20.8615C41.1729 23.5678 40.9851 26.2948 40.3713 28.9445C39.7589 31.6535 38.8464 34.2892 37.65 36.8048C36.9948 38.1966 36.2667 39.5543 35.4685 40.8727C35.3944 41.0062 35.442 41.173 35.5761 41.2496C35.7101 41.3262 35.8821 41.285 35.9647 41.1564C37.4168 38.7644 38.6319 36.2422 39.5934 33.6242C40.5787 30.9845 41.2207 28.2341 41.5044 25.4377C41.6521 23.9157 41.6515 22.3834 41.5026 20.8615C41.4666 20.505 40.8916 20.5014 40.928 20.8615V20.8615Z" fill="black"/>
<path d="M96.961 43.9375L94.3753 51.9917C94.2495 51.9818 92.8758 52.0854 92.7473 52.0854C90.5862 52.0853 88.7045 53.5287 88.1898 55.5813C87.6751 57.634 88.6605 59.765 90.5765 60.7426L87.4395 71.365C87.4395 71.365 108.892 73.4178 110.982 76.1767C111.12 68.5941 110.762 49.5821 110.762 49.5821C110.342 47.2479 109.591 46.5217 108.016 46.3511L97.8534 44.2968" fill="#0C042E"/>
<path d="M96.6829 43.8629L95.8078 46.589L94.4191 50.9146L94.0973 51.9171L94.3743 51.7108C94.0714 51.71 93.7686 51.7264 93.4676 51.7601C93.1554 51.7807 92.8439 51.7955 92.5315 51.8093C90.2826 51.9038 88.3783 53.4621 87.8865 55.6102C87.3947 57.7582 88.4376 59.9619 90.4305 60.9853L90.2985 60.668L89.2358 64.266L87.5495 69.9764L87.1614 71.2904C87.1394 71.3748 87.158 71.4644 87.212 71.5337C87.2659 71.6031 87.3494 71.6444 87.4385 71.646C88.1486 71.714 88.858 71.7905 89.5671 71.8685C91.288 72.0576 93.0066 72.2654 94.723 72.4919C96.8819 72.7783 99.0373 73.0947 101.182 73.4682C103.17 73.8141 105.158 74.1974 107.102 74.731C107.847 74.927 108.578 75.1667 109.293 75.4488C109.323 75.4612 109.296 75.4498 109.349 75.4723C109.39 75.4893 109.43 75.5067 109.47 75.5243C109.54 75.5548 109.609 75.5861 109.678 75.6184C109.805 75.6781 109.93 75.7411 110.052 75.809C110.161 75.8691 110.267 75.9328 110.37 76.0023C110.393 76.0183 110.416 76.0348 110.44 76.0511C110.506 76.0977 110.435 76.0458 110.462 76.067C110.502 76.0989 110.542 76.1312 110.581 76.1654C110.616 76.1972 110.65 76.23 110.683 76.2645C110.721 76.3048 110.769 76.3649 110.733 76.3185C110.801 76.4241 110.931 76.4739 111.054 76.4413C111.177 76.4087 111.264 76.3013 111.268 76.1767C111.296 74.6637 111.3 73.1503 111.3 71.637C111.3 69.7669 111.291 67.8968 111.274 66.0268C111.258 64.0897 111.237 62.1526 111.212 60.2155C111.191 58.4683 111.166 56.7211 111.139 54.974C111.12 53.7054 111.099 52.4368 111.077 51.1683C111.068 50.6445 111.088 50.1112 111.049 49.5884C110.998 49.1422 110.894 48.7034 110.739 48.281C110.609 47.8548 110.406 47.4535 110.138 47.0941C109.62 46.4351 108.895 46.2015 108.086 46.0784C108.012 46.0671 108.116 46.0844 108.083 46.0785C108.073 46.0767 108.062 46.0743 108.052 46.0723C108.01 46.064 107.968 46.0553 107.926 46.0468L107.453 45.9512L105.81 45.619L101.27 44.7014L98.0944 44.0594L97.9288 44.026C97.5679 43.953 97.4136 44.4945 97.7761 44.5678L100.04 45.0254L104.537 45.9344L107.742 46.5823C108.155 46.6657 108.58 46.6924 108.967 46.8704C109.716 47.2144 110.058 47.9618 110.269 48.7029C110.386 49.0533 110.456 49.417 110.478 49.785C110.483 50.0727 110.488 50.3604 110.493 50.6481C110.513 51.7834 110.532 52.9188 110.55 54.0542C110.576 55.702 110.6 57.3499 110.622 58.9979C110.647 60.9062 110.669 62.8146 110.688 64.7231C110.705 66.6091 110.717 68.495 110.724 70.3811C110.728 71.9948 110.727 73.6086 110.708 75.2222C110.704 75.5404 110.699 75.8585 110.694 76.1767L111.229 76.0349C110.906 75.6576 110.496 75.3596 110.034 75.1647C109.376 74.859 108.695 74.6042 107.996 74.4028C106.108 73.8565 104.189 73.418 102.249 73.0893C100.073 72.6913 97.8844 72.3595 95.692 72.0599C93.8405 71.8069 91.9859 71.5765 90.1283 71.3688C89.528 71.3014 88.9274 71.2363 88.3265 71.1737C88.0448 71.1286 87.7606 71.0999 87.4755 71.0876C87.4631 71.0871 87.4507 71.0859 87.4384 71.084L87.7154 71.4397L88.7781 67.8416L90.4645 62.1313L90.8525 60.8173C90.8858 60.6946 90.8319 60.5652 90.7205 60.5C88.9767 59.6173 88.0408 57.7126 88.4255 55.8295C88.8102 53.9465 90.4228 52.5398 92.3796 52.3802C92.7255 52.354 93.0745 52.348 93.4212 52.325C93.7376 52.2894 94.0558 52.2719 94.3743 52.2727C94.5031 52.2713 94.6157 52.1874 94.6513 52.0664L95.5265 49.3402L96.9152 45.0147L97.237 44.0122C97.3481 43.6664 96.7935 43.5184 96.6829 43.8628V43.8629Z" fill="black"/>
<path d="M112.953 58.4537L113.613 70.1317C113.81 73.6196 114.638 77.0456 116.059 80.2505L118.807 86.4501L97.4507 85.0571L97.0679 67.5611C96.996 64.2792 97.6477 61.0206 98.9785 58.0069L104.907 44.5822L105.059 43.1508L105.809 43.1504C107.122 43.1497 108.377 43.676 109.282 44.6063L109.949 45.2929L106.249 52.4598" fill="#543EE9"/>
<path d="M112.667 58.4536L112.873 62.0981L113.219 68.2254C113.326 70.1111 113.43 71.9867 113.776 73.8508C114.146 75.8402 114.723 77.7873 115.499 79.6615C115.762 80.297 116.048 80.9238 116.326 81.5528L118.509 86.4768L118.56 86.5918L118.809 86.1691L116.677 86.0301L111.582 85.6977L105.421 85.2959L100.076 84.9473L98.3171 84.8326C98.0422 84.7995 97.7655 84.7814 97.4885 84.7785C97.4762 84.7784 97.464 84.7776 97.4518 84.7761L97.7391 85.0571L97.6965 83.1084L97.5964 78.5353L97.4795 73.1934L97.3864 68.9382C97.3641 67.9197 97.3283 66.9015 97.3825 65.8831C97.532 63.1819 98.1721 60.5282 99.2728 58.0463L100.499 55.2688L102.603 50.5055L104.51 46.1867L105.043 44.979C105.078 44.8991 105.114 44.8193 105.149 44.7393C105.213 44.5314 105.245 44.3156 105.247 44.0986L105.347 43.1506L105.06 43.4316C105.358 43.4314 105.656 43.4248 105.953 43.4332C106.598 43.4516 107.231 43.6065 107.809 43.8872C108.594 44.2711 109.154 44.881 109.747 45.4914L109.702 45.1509L108.45 47.5779L106.463 51.4266L106.003 52.3178C105.836 52.6399 106.332 52.9247 106.499 52.6015L107.752 50.1745L109.738 46.3258L110.199 45.4346C110.261 45.3237 110.243 45.186 110.154 45.0941C109.511 44.4329 108.894 43.7759 108.036 43.3718C107.418 43.0795 106.746 42.9108 106.06 42.8757C105.728 42.8589 105.393 42.8695 105.06 42.8697C104.903 42.8736 104.777 42.9972 104.773 43.1507L104.667 44.1391C104.639 44.2802 104.624 44.4234 104.622 44.5672C104.626 44.6104 104.698 44.373 104.646 44.4704C104.51 44.7279 104.408 45.0092 104.291 45.2751L102.578 49.1543L100.426 54.0264L98.9122 57.4555C98.0442 59.3639 97.426 61.3719 97.0724 63.4317C96.8335 65.0327 96.7413 66.6514 96.797 68.2685L96.878 71.9694L96.9933 77.237L97.1012 82.1676L97.1616 84.9288L97.1644 85.057C97.168 85.2106 97.2946 85.3344 97.4517 85.3379L99.5832 85.4769L104.678 85.8093L110.839 86.2111L116.184 86.5597L117.943 86.6744C118.218 86.6923 118.496 86.7263 118.772 86.7285C118.784 86.7286 118.796 86.7301 118.808 86.7309C119.049 86.7465 119.135 86.4857 119.056 86.3081L117.119 81.9369C116.853 81.3374 116.587 80.7378 116.321 80.1383C114.914 76.9589 114.094 73.5608 113.9 70.1016C113.874 69.652 113.849 69.2024 113.823 68.7527L113.489 62.8394C113.408 61.4013 113.344 59.9612 113.246 58.5242C113.244 58.5006 113.243 58.4771 113.242 58.4536C113.221 58.094 112.647 58.0916 112.667 58.4536L112.667 58.4536Z" fill="black"/>
<path d="M74.7812 37.7926C74.5758 36.9148 74.0798 36.1279 73.3702 35.5541C72.7406 35.0682 72.0485 34.8915 71.3328 34.7299C70.9979 34.6544 70.6577 34.5821 70.3164 34.483C69.0112 34.1043 67.7223 33.6488 66.4431 33.1939C66.2176 33.1137 65.9925 33.0324 65.7677 32.9502C65.6627 34.3107 64.4332 38.9234 64.2397 39.3719C63.8272 40.2755 63.3428 41.1461 62.791 41.9755C64.6777 42.2338 66.5478 42.5795 68.3881 43.0098L69.5481 43.281C70.7178 43.5544 72.0243 43.8107 73.0631 43.2179C74.0777 42.639 74.6047 41.5331 74.8086 40.4507C74.9915 39.5727 74.9822 38.6668 74.7812 37.7926Z" fill="#543EE9"/>
<path d="M75.0576 37.7178C74.7297 36.4566 73.9104 35.3455 72.6641 34.8299C72.011 34.5597 71.31 34.4536 70.6283 34.2767C69.8639 34.0783 69.112 33.822 68.3652 33.5687C67.521 33.2823 66.6809 32.9839 65.8436 32.6791C65.7572 32.6571 65.6653 32.6751 65.5943 32.728C65.5233 32.7809 65.4811 32.8628 65.4799 32.9501C65.4297 33.4191 65.3508 33.8849 65.2437 34.3448C65.108 34.9927 64.9554 35.6373 64.7962 36.2801C64.5545 37.2554 64.3319 38.2555 63.9966 39.2055C63.85 39.581 63.6733 39.9446 63.4683 40.2929C63.1807 40.8183 62.8626 41.3269 62.5423 41.8336C62.498 41.9091 62.4917 42.0003 62.5252 42.0809C62.5588 42.1615 62.6284 42.2225 62.714 42.2463C63.9508 42.4165 65.1814 42.6236 66.4058 42.8675C67.6001 43.1064 68.7778 43.4132 69.9692 43.6633C70.9917 43.878 72.1141 44.0097 73.0815 43.5275C73.9438 43.0977 74.5173 42.2773 74.8416 41.4076C75.2725 40.2231 75.3475 38.9427 75.0576 37.7178C74.9719 37.3662 74.4178 37.515 74.5035 37.8672C74.7406 38.9001 74.6979 39.9755 74.3798 40.9874C74.1268 41.8048 73.6408 42.5914 72.8548 43.0097C72.001 43.4641 70.9545 43.3004 70.0501 43.1062C68.9391 42.8676 67.8391 42.5851 66.725 42.3592C65.4466 42.0998 64.1605 41.8816 62.8667 41.7045L63.0384 42.1172C63.5829 41.2557 64.1483 40.377 64.5234 39.4287C64.6399 39.1061 64.7395 38.7778 64.8217 38.4452C65.1696 37.1981 65.4874 35.9406 65.7592 34.6755C65.8951 34.1071 65.9936 33.5308 66.0544 32.9501L65.6907 33.221C67.0867 33.7292 68.4889 34.23 69.9134 34.6576C71.1787 35.0374 72.6128 35.1126 73.5673 36.1145C74.0247 36.6128 74.3466 37.2155 74.5035 37.8672C74.5946 38.2174 75.149 38.069 75.0576 37.7178Z" fill="black"/>
<path d="M23.1572 32.8167C18.8024 33.4903 14.7171 34.4942 10.1792 34.9799C10.6137 37.7705 10.7915 39.2123 11.1191 42.0168L-10.9922 41.0918C-7.24635 40.5461 -3.48899 40.0429 0.213724 39.2539C1.16284 39.0517 2.10732 38.83 3.04716 38.5888C3.77873 38.4001 5.18467 38.275 5.77672 37.8205C6.27729 37.4362 5.93783 36.0762 5.87696 35.4424C5.78415 34.4762 5.64921 33.515 5.47215 32.5588C5.3391 31.9645 5.25622 31.3605 5.22433 30.7529L23.1572 32.8167Z" fill="#0C042E"/>
<path d="M23.0808 32.5455C19.7427 33.0636 16.4438 33.7955 13.1054 34.3119C12.133 34.4623 11.1578 34.5932 10.1792 34.6987C10.0905 34.7013 10.0077 34.7428 9.95388 34.8119C9.90009 34.8809 9.88109 34.9701 9.90217 35.0544C10.2622 37.3694 10.5599 39.6902 10.8318 42.0166L11.1191 41.7356L8.90807 41.6431L3.64422 41.4229L-2.76307 41.1549L-8.26509 40.9247L-10.0915 40.8483C-10.3787 40.8204 -10.6672 40.8083 -10.9557 40.8122C-10.9679 40.8123 -10.9801 40.8118 -10.9922 40.8106L-10.9158 41.3625C-7.25492 40.8294 -3.58375 40.3364 0.0375481 39.578C0.931906 39.3906 1.82231 39.1863 2.70875 38.965C3.34605 38.8052 3.9912 38.6995 4.63162 38.5549C5.13095 38.4421 5.86339 38.2911 6.14883 37.8225C6.44062 37.3434 6.33551 36.6857 6.26415 36.1632C6.15467 35.3618 6.07603 34.5572 5.95958 33.7567C5.81456 32.76 5.53574 31.7615 5.51165 30.7527L5.22434 31.0336L7.00152 31.2381L11.2924 31.732L16.4642 32.3271L20.9537 32.8438L22.4265 33.0133C22.6571 33.0398 22.8941 33.0854 23.1263 33.0938C23.1366 33.0942 23.147 33.0962 23.1572 33.0974C23.3155 33.0964 23.4435 32.9712 23.4445 32.8164C23.4411 32.6627 23.3144 32.5389 23.1572 32.5354L21.3801 32.3309L17.0892 31.8371L11.9173 31.242L7.42786 30.7253L5.95509 30.5558C5.72446 30.5292 5.4874 30.4836 5.25519 30.4752C5.24494 30.4749 5.23451 30.4728 5.2243 30.4717C5.06605 30.4727 4.93801 30.5979 4.93701 30.7526C4.95779 31.622 5.1768 32.4748 5.31656 33.3302C5.44443 34.1129 5.51191 34.9005 5.61966 35.6852C5.69075 36.2029 5.83081 36.7673 5.73723 37.2897C5.72011 37.4703 5.6048 37.628 5.43549 37.7022C5.17042 37.8314 4.88933 37.9266 4.59924 37.9851C4.00474 38.1278 3.39755 38.209 2.80487 38.3601C1.94784 38.5787 1.08656 38.7802 0.221004 38.9648C-1.53105 39.3403 -3.29681 39.6514 -5.06702 39.9326C-7.06423 40.2498 -9.06741 40.5292 -11.0687 40.8206C-11.4013 40.8691 -11.3008 41.3596 -10.9923 41.3725L-8.78125 41.465L-3.51743 41.6852L2.88987 41.9533L8.3918 42.1834C9.28431 42.2208 10.1888 42.3039 11.0825 42.296C11.0946 42.2959 11.107 42.297 11.119 42.2975C11.2775 42.2971 11.4058 42.1715 11.4063 42.0166C11.1286 39.6403 10.8239 37.2696 10.4562 34.905L10.1791 35.2606C13.6072 34.891 16.9798 34.1926 20.3668 33.5752C21.3203 33.4014 22.2755 33.236 23.2335 33.0873C23.5978 33.0308 23.4431 32.4892 23.0808 32.5455Z" fill="#0C042E"/>
<path d="M23.2309 40.8135C20.7378 43.0544 18.5605 45.3946 15.8685 47.5913C17.3592 49.196 18.0995 50.0445 19.5279 51.7025L4.98047 60.3006C7.13964 58.3946 9.32472 56.5111 11.3506 54.4674C11.8699 53.9436 12.3777 53.4092 12.8742 52.8643C13.2602 52.4395 14.1052 51.7751 14.2865 51.2383C14.4397 50.7844 13.6315 50.0555 13.3171 49.6753C12.8378 49.0957 12.3338 48.5369 11.805 47.9988C11.4616 47.6739 11.1461 47.3219 10.8616 46.9465L23.2309 40.8135Z" fill="#0C042E"/>
<path d="M23.0271 40.6143C20.5464 42.8471 18.2541 45.2747 15.6647 47.3921C15.5548 47.5028 15.5548 47.6788 15.6647 47.7895C16.9143 49.1352 18.1265 50.5106 19.3241 51.9006L19.3822 51.4593L17.9357 52.3143L14.4616 54.3676L10.2585 56.8518L6.62498 58.9994L5.42758 59.7071C5.23151 59.8078 5.0418 59.9199 4.85947 60.0429C4.85155 60.0482 4.84331 60.0531 4.83479 60.0575L5.18295 60.4987C7.26977 58.657 9.37997 56.8363 11.348 54.8713C11.8323 54.3879 12.307 53.8955 12.7722 53.3943C13.1383 52.999 13.5292 52.6328 13.904 52.2461C14.195 51.9458 14.6061 51.533 14.5913 51.0859C14.5764 50.6388 14.2028 50.2383 13.9194 49.9208C13.4913 49.4412 13.0807 48.947 12.6463 48.4727C12.1387 47.9185 11.547 47.4147 11.1091 46.8041L11.006 47.1885L15.1815 45.1182L21.841 41.8162L23.3752 41.0555C23.7051 40.8919 23.4146 40.407 23.0852 40.5702L18.9097 42.6406L12.2502 45.9426L10.716 46.7034C10.5797 46.7822 10.5337 46.9537 10.613 47.0878C10.9964 47.6226 11.4854 48.0683 11.9375 48.5455C12.3642 48.9959 12.7602 49.4691 13.1669 49.9363C13.4412 50.2516 13.7864 50.5489 13.9644 50.9314C14.1251 51.2766 13.7203 51.619 13.4976 51.8488C13.1515 52.2061 12.7864 52.5409 12.4493 52.9068C12.0051 53.3888 11.5515 53.8623 11.0883 54.3272C10.1522 55.2686 9.18185 56.1771 8.19673 57.0693C7.06771 58.0918 5.91908 59.0933 4.77674 60.1014C4.53339 60.3162 4.84742 60.7067 5.12491 60.5427L6.57148 59.6877L10.0456 57.6344L14.2486 55.1502L17.8822 53.0026C18.4692 52.6558 19.0743 52.3275 19.6477 51.9592C19.6557 51.954 19.6641 51.9494 19.6723 51.9446C19.7477 51.8994 19.7982 51.8233 19.8095 51.7375C19.8208 51.6518 19.7917 51.5657 19.7305 51.5033C18.5329 50.1133 17.3207 48.7379 16.0711 47.3922V47.7895C18.6605 45.6721 20.9528 43.2445 23.4335 41.0116C23.7061 40.7662 23.2989 40.3696 23.0271 40.6143Z" fill="#0C042E"/>
<path d="M22.7531 24.1311C19.6693 22.763 16.6156 21.7182 13.4957 20.1539C12.5682 22.1231 12.0591 23.1211 11.057 25.055L-2.72266 15.3223C-0.0846462 16.5206 2.5423 17.7511 5.2578 18.7756C5.95385 19.0382 6.65534 19.2864 7.36227 19.5202C7.91297 19.7016 8.86864 20.2025 9.44476 20.1558C9.93186 20.1162 10.302 19.1038 10.5368 18.6722C10.8949 18.0142 11.2238 17.342 11.5235 16.6557C11.695 16.2196 11.9029 15.798 12.145 15.3952L22.7531 24.1311Z" fill="#0C042E"/>
<path d="M22.8981 23.8886C19.8268 22.5286 16.6458 21.4143 13.6406 19.9115C13.5034 19.835 13.3288 19.8798 13.2475 20.0123C12.4695 21.6631 11.6489 23.292 10.8089 24.9134L11.202 24.8126L9.83179 23.8447L6.54106 21.5204L2.5598 18.7085L-0.881969 16.2775L-2.0162 15.4764C-2.1877 15.3393 -2.3674 15.2124 -2.55434 15.0963C-2.56245 15.0912 -2.57026 15.0857 -2.57771 15.0798L-2.86775 15.565C-0.284043 16.739 2.28937 17.9415 4.94428 18.9566C5.61117 19.2116 6.28304 19.4536 6.95987 19.6827C7.46987 19.8547 7.95988 20.0714 8.46735 20.2489C8.86091 20.3865 9.39345 20.563 9.78386 20.3307C10.1637 20.1047 10.3771 19.6469 10.5607 19.2696C10.8338 18.7088 11.136 18.1624 11.405 17.5996C11.7323 16.9146 11.9828 16.1806 12.3931 15.5371L11.9419 15.5939L15.5229 18.5429L21.2342 23.2463L22.55 24.3298C22.8311 24.5614 23.2396 24.1658 22.9563 23.9325L19.3753 20.9835L13.664 16.2802L12.3482 15.1966C12.2844 15.1368 12.1964 15.1085 12.1087 15.1195C12.0211 15.1305 11.9432 15.1798 11.897 15.2535C11.5502 15.7974 11.3304 16.4071 11.0621 16.9893C10.8074 17.542 10.519 18.0758 10.243 18.6181C10.0591 18.9796 9.91342 19.3862 9.64786 19.7009C9.58505 19.8045 9.47369 19.8708 9.35072 19.8779C9.10986 19.8617 8.87326 19.8075 8.65009 19.7175C8.18603 19.5577 7.74155 19.3507 7.27557 19.1954C6.62372 18.9781 5.97659 18.7479 5.33417 18.5048C4.06586 18.0262 2.81645 17.5018 1.57667 16.9567C0.185308 16.3451 -1.19428 15.7084 -2.57766 15.0798C-2.71407 15.0077 -2.88437 15.0543 -2.96262 15.1852C-3.04087 15.3162 -2.99887 15.4842 -2.8677 15.565L-1.49746 16.5328L1.79326 18.8572L5.77451 21.6692L9.21629 24.1001L10.3505 24.9013C10.5281 25.0267 10.7019 25.169 10.8886 25.2813C10.8967 25.2862 10.9044 25.2924 10.912 25.2978C11.0491 25.3754 11.2246 25.3304 11.3051 25.197C12.1451 23.5756 12.9657 21.9468 13.7438 20.2959L13.3506 20.3967C16.3558 21.8996 19.5368 23.0139 22.6081 24.3739C22.9424 24.5218 23.2348 24.0377 22.8981 23.8886Z" fill="#0C042E"/>
<path d="M104.621 58.735L124.599 67.724L127.308 68.8349C131.598 70.2612 137.27 70.7396 139.904 66.161L149.123 51.3053C148.178 50.8997 143.11 49.7406 142.039 49.1114C140.1 47.9728 138.497 46.7524 137.562 45.7677L131.497 56.6067L112.841 46.3355C111.652 45.6809 110.335 45.2786 108.977 45.1548L106.281 44.9092" fill="#543EE9"/>
<path d="M104.477 58.9777L107.029 60.1261L112.856 62.7481L119.359 65.6738L123.808 67.6758C124.878 68.1574 125.971 68.5885 127.058 69.034C127.567 69.2299 128.09 69.3918 128.623 69.5185C129.38 69.7174 130.149 69.8693 130.925 69.9733C132.477 70.1784 134.083 70.1802 135.603 69.7734C137.121 69.3812 138.47 68.5229 139.451 67.3249C139.809 66.8537 140.137 66.3616 140.433 65.8514L143.143 61.4844L146.851 55.5097L149.254 51.6371L149.372 51.4472C149.451 51.3131 149.405 51.1415 149.269 51.0627C148.734 50.8564 148.185 50.6845 147.627 50.5481C146.815 50.3224 146 50.1053 145.188 49.8776C144.432 49.6655 143.674 49.4515 142.935 49.189C142.143 48.9081 141.416 48.4176 140.698 47.9377C139.635 47.2553 138.652 46.461 137.766 45.5691C137.703 45.5084 137.614 45.4795 137.526 45.4906C137.438 45.5016 137.36 45.5515 137.315 45.626L135.27 49.2808L131.998 55.1277L131.249 56.465L131.642 56.3641L129.027 54.924L123.166 51.6974L116.916 48.2562L113.186 46.2029C112.204 45.6463 111.137 45.2473 110.025 45.0213C108.916 44.8082 107.763 44.7632 106.639 44.6609L106.282 44.6284C105.914 44.5949 105.916 45.157 106.282 45.1903C107.166 45.2708 108.049 45.3514 108.933 45.4319C110.284 45.56 111.593 45.965 112.773 46.6204C113.869 47.223 114.964 47.8262 116.06 48.4297L122.141 51.778L128.187 55.1065C129.225 55.6784 130.253 56.2778 131.306 56.824C131.322 56.8321 131.337 56.8411 131.352 56.8496C131.49 56.9257 131.664 56.881 131.746 56.7488L133.791 53.094L137.063 47.2468L137.811 45.9096L137.36 45.9664C138.131 46.7455 138.977 47.4489 139.888 48.0665C140.444 48.4575 141.014 48.8281 141.599 49.1783C141.876 49.3487 142.168 49.495 142.471 49.6156C143.966 50.2008 145.56 50.5638 147.108 50.9887C147.499 51.0964 147.891 51.2044 148.281 51.3202C148.428 51.364 148.575 51.4087 148.721 51.457C148.779 51.4762 148.837 51.4957 148.894 51.5165C148.918 51.5254 149.062 51.583 148.979 51.548L148.876 51.1636L147.163 53.9243L143.588 59.6854L140.421 64.7884C140.181 65.1755 139.939 65.5618 139.7 65.9497C139.09 66.941 138.369 67.8058 137.354 68.4261C134.718 70.0378 131.3 69.6814 128.448 68.8885C127.461 68.5872 126.494 68.2279 125.552 67.8125L124.908 67.5482C124.847 67.5233 124.786 67.4984 124.725 67.4734C124.682 67.4557 124.635 67.4263 124.743 67.4808C124.674 67.4463 124.603 67.4177 124.533 67.3864L120.882 65.7438L114.655 62.9416L108.467 60.1573L104.935 58.5681L104.767 58.4925C104.433 58.3424 104.141 58.8266 104.477 58.9778L104.477 58.9777Z" fill="black"/>
<path d="M149.077 51.3212C148.748 51.8565 147.164 51.5597 145.102 50.6752L146.336 47.9736C148.281 49.4244 149.423 50.7573 149.077 51.3212Z" fill="black"/>
<path d="M148.83 51.1791C148.791 51.2389 148.854 51.1516 148.828 51.184C148.816 51.1987 148.802 51.2118 148.787 51.2232C148.835 51.1878 148.739 51.2475 148.721 51.2559C148.763 51.2368 148.651 51.2755 148.631 51.2804C148.593 51.2898 148.555 51.2963 148.517 51.2998C148.249 51.3179 147.979 51.2983 147.717 51.2415C146.866 51.0615 146.037 50.7901 145.247 50.4322L145.35 50.8167L146.585 48.1151L146.192 48.216C146.963 48.7677 147.669 49.4002 148.299 50.1023C148.497 50.3183 148.661 50.5613 148.786 50.8238C148.789 50.8307 148.815 50.9004 148.825 50.9316C148.833 50.9586 148.84 50.9859 148.846 51.0133C148.864 51.0943 148.846 50.963 148.85 51.0412C148.852 51.0642 148.847 51.1736 148.854 51.1061C148.851 51.1277 148.845 51.1489 148.837 51.1693C148.853 51.126 148.846 51.152 148.83 51.1791C148.648 51.4945 149.144 51.778 149.326 51.4628C149.641 50.9179 149.164 50.2712 148.831 49.8559C148.172 49.0358 147.325 48.3615 146.482 47.7308C146.345 47.6525 146.169 47.6977 146.089 47.8316L144.854 50.5331C144.777 50.6674 144.822 50.8379 144.957 50.9176C145.852 51.2995 146.789 51.6713 147.76 51.8167C148.275 51.8938 149 51.9609 149.326 51.4628C149.526 51.1571 149.029 50.8749 148.83 51.1791Z" fill="black"/>
<path d="M142.039 49.111C140.1 47.9724 138.497 46.752 137.562 45.7672L138.572 43.9696L140.06 41.3203L147.48 45.472L146.337 47.9733L145.102 50.6748C144.048 50.2168 143.025 49.6945 142.039 49.111Z" fill="#0C042E"/>
<path d="M142.184 48.8688C140.607 47.9395 139.029 46.8924 137.766 45.5689L137.811 45.9094L139.84 42.2964L140.308 41.4626L139.915 41.5634L142.415 42.9621L146.42 45.2033L147.335 45.7151L147.232 45.3307C146.598 46.7178 145.964 48.1048 145.33 49.4919L144.854 50.5334L145.247 50.4326C144.194 49.974 143.171 49.4517 142.184 48.8688C141.866 48.6825 141.577 49.1682 141.894 49.354C142.881 49.9369 143.904 50.4592 144.957 50.9179C145.094 50.9937 145.269 50.9491 145.35 50.8171C145.979 49.4418 146.607 48.0666 147.236 46.6914L147.728 45.6143C147.804 45.4798 147.759 45.3105 147.625 45.2298L145.125 43.8312L141.12 41.5899L140.205 41.0781C140.068 41.002 139.893 41.0467 139.812 41.1789C139.172 42.3186 138.532 43.4584 137.892 44.5981L137.315 45.6258C137.252 45.7367 137.27 45.8747 137.359 45.9663C138.654 47.3226 140.277 48.4017 141.894 49.354C142.212 49.541 142.501 49.0553 142.184 48.8688Z" fill="black"/>
<path d="M132.519 54.7812L129.492 60.228L132.519 54.7812Z" fill="#0C042E"/>
<path d="M132.271 54.6392L129.62 59.4101L129.244 60.086C129.068 60.4038 129.564 60.6878 129.741 60.3696L132.392 55.5988L132.768 54.9229C132.944 54.6051 132.448 54.3211 132.271 54.6392H132.271Z" fill="black"/>
<path d="M146.631 47.6673L148.935 41.4548C149.299 40.9335 149.581 40.3611 149.769 39.7572C150.198 38.3817 150.83 37.2126 152.053 36.4132L152.095 35.1739C152.095 35.1739 145.622 32.3924 145.035 32.7922L143.119 37.2876L142.844 34.1919C142.82 33.919 142.659 33.6756 142.415 33.5418C142.17 33.4081 141.874 33.4013 141.623 33.5238C141.362 33.6514 141.187 33.9013 141.16 34.1852L140.629 39.629L139.523 42.2751" fill="#0C042E"/>
<path d="M146.908 47.7426L148.46 43.5569L149.175 41.63C149.19 41.5969 149.207 41.5649 149.226 41.5343C149.464 41.1464 149.678 40.7448 149.866 40.3318C150.165 39.6032 150.351 38.8562 150.761 38.1721C150.974 37.8129 151.234 37.4822 151.534 37.1884C151.689 37.0375 151.854 36.8981 152.03 36.7712C152.181 36.6625 152.325 36.5999 152.341 36.3973C152.371 35.9917 152.368 35.5811 152.382 35.1745C152.384 35.0742 152.329 34.9811 152.24 34.9319C150.561 34.2108 148.86 33.5154 147.125 32.9357C146.682 32.7797 146.23 32.6492 145.771 32.5449C145.512 32.4903 145.134 32.3956 144.89 32.5502C144.796 32.6309 144.73 32.7373 144.699 32.8555L144.518 33.2794L143.917 34.6919L142.842 37.2134L143.407 37.2881L143.155 34.4622C143.148 34.3182 143.132 34.1748 143.108 34.0325C143.016 33.6063 142.676 33.273 142.241 33.1811C141.806 33.0893 141.356 33.256 141.092 33.607C140.956 33.7986 140.877 34.0236 140.865 34.2565C140.766 35.2171 140.678 36.179 140.584 37.1401C140.504 37.9668 140.461 38.8067 140.342 39.6291C140.365 39.4725 140.321 39.6298 140.302 39.6751L140.183 39.9609L139.807 40.8582L139.246 42.2009C139.205 42.3504 139.295 42.5044 139.447 42.5465C139.599 42.5841 139.755 42.4976 139.8 42.3503L140.84 39.862C140.901 39.7008 140.936 39.5314 140.943 39.3598L141.071 38.0396L141.392 34.7492C141.415 34.5159 141.394 34.1984 141.52 33.9882C141.609 33.8424 141.762 33.7451 141.934 33.7244C142.106 33.7038 142.279 33.7623 142.401 33.8828C142.512 34.0064 142.572 34.1658 142.569 34.3301L142.832 37.2882C142.837 37.4258 142.942 37.54 143.082 37.5584C143.221 37.5769 143.354 37.4943 143.396 37.3629L145.072 33.4288L145.312 32.8675L145.18 33.0354C145.228 33.0048 145.099 33.0636 145.176 33.037C145.229 33.0187 145.104 33.0306 145.192 33.0352C145.265 33.039 145.337 33.0387 145.41 33.0474C145.328 33.0376 145.452 33.0549 145.468 33.0577C145.518 33.0664 145.568 33.0763 145.618 33.0867C145.733 33.1109 145.847 33.1391 145.961 33.169C146.532 33.3199 147.092 33.5131 147.648 33.7118C148.826 34.1331 150.023 34.6113 151.154 35.082C151.42 35.1925 151.685 35.3035 151.95 35.4171L151.807 35.1745L151.766 36.4137L151.908 36.1711C150.708 36.9673 149.994 38.1634 149.554 39.4909C149.449 39.8339 149.321 40.1695 149.17 40.4956C149.086 40.6659 148.995 40.8323 148.896 40.9947C148.807 41.1185 148.727 41.2482 148.657 41.3828C148.607 41.4986 148.569 41.6208 148.525 41.7389L146.872 46.1971L146.354 47.593C146.228 47.9336 146.783 48.0803 146.908 47.7424L146.908 47.7426Z" fill="black"/>
<path d="M140.652 48.2468C141.578 48.9485 145.102 50.7187 145.102 50.7187L151.294 40.4094C151.336 40.3427 151.4 40.2927 151.476 40.2684C152.959 39.8724 152.69 39.8461 153.979 38.3345L154.824 36.5298C155.003 36.1608 155.038 35.7406 154.924 35.3478C154.614 34.3419 153.411 33.8423 152.188 33.3183L147.071 31.2559" fill="#0C042E"/>
<path d="M140.509 48.4898C141.116 48.915 141.754 49.2966 142.418 49.6317C143.107 50.0079 143.803 50.372 144.502 50.7298C144.654 50.8076 144.806 50.8849 144.959 50.9618C145.096 51.0368 145.27 50.9923 145.352 50.861L147.447 47.3729L150.768 41.8442L151.283 40.9865C151.352 40.841 151.435 40.7023 151.532 40.5724C151.619 40.4786 151.843 40.4619 151.978 40.4219C152.237 40.3545 152.486 40.2557 152.72 40.1279C153.198 39.8442 153.515 39.3412 153.857 38.9242C154.033 38.7398 154.183 38.5344 154.306 38.3131L154.615 37.6516C154.832 37.2436 155.023 36.8228 155.186 36.3917C155.78 34.5337 153.63 33.6023 152.243 33.0385C150.6 32.3704 148.952 31.7118 147.306 31.0484L147.15 30.9853C146.997 30.9452 146.839 31.0326 146.796 31.1816C146.758 31.3307 146.846 31.4829 146.997 31.5272L151.775 33.453C152.112 33.5888 152.438 33.7265 152.769 33.877C153.465 34.1928 154.363 34.6007 154.631 35.3685C154.833 35.9467 154.552 36.4419 154.315 36.9504L153.963 37.7022C153.898 37.8656 153.824 38.025 153.739 38.1798C153.536 38.4597 153.316 38.7282 153.081 38.9839C152.931 39.1847 152.762 39.3712 152.576 39.5412C152.426 39.6537 152.257 39.7412 152.077 39.8003C151.754 39.912 151.317 39.9368 151.093 40.2112C150.862 40.5346 150.655 40.8734 150.473 41.225L147.293 46.5198L145.742 49.1024C145.461 49.5694 145.153 50.0295 144.897 50.5095C144.884 50.5327 144.869 50.5548 144.856 50.5774L145.249 50.4766C144.063 49.8807 142.882 49.2683 141.736 48.6009C141.412 48.4202 141.099 48.2211 140.799 48.0047C140.662 47.9274 140.487 47.9723 140.406 48.1055C140.33 48.24 140.375 48.4093 140.509 48.4899V48.4898Z" fill="black"/>
<path d="M146.372 35.8301C147.728 32.5153 148.453 30.7038 149.377 28.8273C150.302 26.9507 149.042 26.0162 147.663 27.6591C145.742 30.4522 143.184 37.0361 143.184 37.0361C143.184 37.0361 145.002 36.8405 146.306 37.943" fill="#0C042E"/>
<path d="M146.649 35.9052C147.394 34.0847 148.118 32.2538 148.925 30.4586C149.075 30.1243 149.229 29.7916 149.387 29.4605C149.607 29.0602 149.784 28.6384 149.913 28.2019C150.067 27.5485 149.947 26.6131 149.1 26.5354C148.27 26.4593 147.584 27.2414 147.191 27.8548C146.784 28.4901 146.423 29.1532 146.077 29.8221C145.322 31.2848 144.648 32.7869 144.001 34.298C143.624 35.1807 143.254 36.0673 142.906 36.9618C142.883 37.0463 142.901 37.1366 142.955 37.2063C143.01 37.2759 143.094 37.317 143.183 37.3174C144.23 37.2064 145.279 37.5026 146.103 38.1421C146.384 38.3744 146.792 37.9788 146.509 37.7447C145.578 36.9984 144.382 36.6427 143.184 36.7554L143.461 37.1111C144.263 35.0473 145.145 33.0054 146.118 31.0134C146.457 30.3207 146.809 29.6336 147.191 28.9629C147.544 28.3435 147.9 27.6295 148.54 27.2491C148.752 27.123 149.046 27.0123 149.239 27.1663C149.409 27.302 149.423 27.6282 149.397 27.8488C149.347 28.2764 149.14 28.6595 148.955 29.0428C148.8 29.3645 148.649 29.688 148.502 30.0132C147.644 31.904 146.88 33.8355 146.095 35.7557C145.958 36.0914 146.513 36.2373 146.649 35.9051L146.649 35.9052Z" fill="black"/>
<path d="M92.7461 49.8382L93.9195 44.3804C94.306 43.2755 95.3679 42.5332 96.562 42.5332H101.652L100.963 44.33L96.9598 43.938L94.9984 50.0475" fill="#543EE9"/>
<path d="M93.0241 49.9121L94.1187 44.8207C94.3102 43.6506 95.3513 42.7956 96.5629 42.8134C97.3313 42.8061 98.1001 42.8134 98.8684 42.8134H101.653L101.376 42.4577L100.687 44.2546L100.964 44.0483L97.4693 43.7061L96.9608 43.6563C96.8318 43.6571 96.7189 43.7411 96.6838 43.8625L94.9654 49.215L94.7223 49.972C94.6113 50.3179 95.1658 50.4659 95.2764 50.1214L96.9947 44.769L97.2378 44.0119L96.9607 44.2182L100.455 44.5604L100.964 44.6102C101.093 44.6088 101.205 44.525 101.241 44.404L101.93 42.6071C101.953 42.5226 101.935 42.4325 101.881 42.363C101.827 42.2934 101.743 42.2523 101.653 42.2515C99.9624 42.2515 98.2711 42.2394 96.5803 42.2515C95.8244 42.2534 95.0945 42.5214 94.524 43.0065C94.0797 43.372 93.7634 43.8644 93.6197 44.4145L93.0298 47.1591L92.47 49.7628C92.3942 50.1156 92.9479 50.2664 93.0241 49.9122V49.9121Z" fill="black"/>
<path d="M154.421 37.3799C153.904 38.4051 153.013 40.302 152.516 41.024C151.296 42.4782 150.181 41.651 150.999 39.99C151.402 39.1729 151.762 38.3696 152.166 37.4151" fill="#0C042E"/>
<path d="M154.174 37.2378C153.593 38.3881 153.077 39.5843 152.397 40.6834C152.235 40.9506 152.012 41.1773 151.745 41.3458C151.646 41.411 151.536 41.458 151.419 41.4845C151.355 41.4973 151.289 41.4963 151.225 41.4818C151.199 41.4707 151.174 41.457 151.152 41.4408C151.127 41.4239 151.106 41.4012 151.092 41.3747C151.043 41.293 151.015 41.2011 151.009 41.1066C150.999 40.7887 151.072 40.4734 151.219 40.19C151.635 39.2923 152.057 38.4004 152.443 37.4896C152.484 37.3401 152.395 37.1861 152.243 37.144C152.09 37.1066 151.934 37.193 151.889 37.3402C151.514 38.2255 151.094 39.0883 150.697 39.9639C150.447 40.5149 150.218 41.3763 150.756 41.8476C151.294 42.3184 152.038 41.9022 152.463 41.4969C152.956 41.0272 153.247 40.3615 153.551 39.7679C153.933 39.0235 154.293 38.2685 154.67 37.5215C154.833 37.1983 154.337 36.9133 154.173 37.2379L154.174 37.2378Z" fill="black"/>
<path d="M152.925 36.6631C152.407 37.6883 151.517 39.5852 151.02 40.3072C149.799 41.7614 148.685 40.9342 149.503 39.2732C149.906 38.4561 150.265 37.6529 150.67 36.6983" fill="#0C042E"/>
<path d="M152.677 36.521C152.097 37.6713 151.581 38.8675 150.901 39.9666C150.739 40.2338 150.516 40.4605 150.249 40.629C150.15 40.6942 150.04 40.7412 149.923 40.7677C149.859 40.7805 149.793 40.7795 149.729 40.765C149.703 40.7539 149.678 40.7402 149.656 40.724C149.631 40.7071 149.61 40.6844 149.596 40.6579C149.547 40.5762 149.519 40.4843 149.513 40.3898C149.503 40.0719 149.576 39.7566 149.723 39.4732C150.139 38.5754 150.561 37.6836 150.947 36.7728C150.988 36.6233 150.899 36.4693 150.746 36.4272C150.594 36.3898 150.438 36.4762 150.393 36.6234C150.017 37.5087 149.597 38.3715 149.201 39.2471C148.951 39.7981 148.722 40.6595 149.26 41.1308C149.797 41.6016 150.542 41.1854 150.967 40.7801C151.46 40.3104 151.751 39.6447 152.055 39.0511C152.437 38.3067 152.797 37.5517 153.174 36.8047C153.337 36.4815 152.841 36.1965 152.677 36.5211L152.677 36.521Z" fill="black"/>
<path d="M151.238 35.7843C150.72 36.8095 149.829 38.7065 149.333 39.4284C148.112 40.8826 146.997 40.0554 147.816 38.3944C148.156 37.7025 148.675 36.5898 149.071 35.6855C149.188 35.4182 149.087 35.1073 148.833 34.9561" fill="#0C042E"/>
<path d="M150.99 35.6428C150.647 36.3234 150.318 37.0107 149.973 37.6905C149.805 38.021 149.635 38.3505 149.454 38.6745C149.316 38.9562 149.139 39.2177 148.928 39.4515C148.73 39.6487 148.428 39.9203 148.119 39.8982C147.951 39.8862 147.857 39.7478 147.829 39.5548C147.776 39.1906 147.931 38.8085 148.088 38.4875C148.27 38.1137 148.449 37.7382 148.624 37.3612C148.852 36.8733 149.075 36.3837 149.291 35.891C149.48 35.4617 149.416 34.9749 148.978 34.7137C148.661 34.5249 148.372 35.0107 148.688 35.199C148.824 35.2891 148.87 35.4642 148.795 35.6074C148.701 35.8547 148.579 36.095 148.469 36.3361C148.27 36.7757 148.066 37.2136 147.859 37.6499C147.538 38.3242 147.025 39.1446 147.337 39.9099C147.614 40.5909 148.4 40.5507 148.932 40.1832C149.586 39.7318 149.92 39.0356 150.272 38.3572C150.69 37.5533 151.078 36.7351 151.486 35.9264C151.649 35.6032 151.154 35.3181 150.99 35.6428L150.99 35.6428Z" fill="black"/>
<path d="M100.598 24.4103L97.1389 23.8366C95.6138 23.5837 94.1141 24.4022 93.5334 25.8043L93.1615 26.7025C92.9283 27.2656 92.3668 27.6321 91.7455 27.6265C89.9303 27.6103 88.3423 28.8177 87.9109 30.5421C87.66 31.5451 87.8344 32.6047 88.3945 33.4801C88.9547 34.3554 89.8529 34.972 90.8851 35.1898L96.6768 36.4117" fill="#0C042E"/>
<path d="M100.675 24.139L98.7526 23.8202C98.054 23.7043 97.3142 23.513 96.6017 23.5098C95.2126 23.5108 93.9476 24.292 93.3496 25.5182C93.1891 25.8577 93.0607 26.212 92.9139 26.5572C92.7108 27.0442 92.2211 27.3578 91.6834 27.345C90.3424 27.3627 89.0885 27.9975 88.2996 29.0581C87.5239 30.1144 87.3061 31.4677 87.7125 32.7059C88.1188 33.9441 89.1013 34.9207 90.3606 35.3382C90.8762 35.4874 91.4003 35.6072 91.9301 35.6968L96.4995 36.6608L96.6009 36.6822C96.9614 36.7583 97.1155 36.2167 96.7536 36.1403L92.8545 35.3177L91.0572 34.9385C90.1019 34.7579 89.2575 34.2172 88.7063 33.4332C88.006 32.4198 87.8895 31.125 88.398 30.0076C88.9065 28.8902 89.9682 28.1082 91.2068 27.9387C91.5126 27.8967 91.8231 27.9272 92.1267 27.8695C92.4399 27.8056 92.7299 27.6613 92.9671 27.4514C93.3186 27.1464 93.4622 26.7205 93.6329 26.3083C93.7801 25.8869 93.9953 25.4913 94.2704 25.1364C94.68 24.658 95.2325 24.317 95.8503 24.1613C96.5896 23.9767 97.3121 24.1483 98.0435 24.2697L100.366 24.6549L100.522 24.6808C100.884 24.7408 101.039 24.1993 100.675 24.1389L100.675 24.139Z" fill="black"/>
<path d="M107.236 45.0123C106.912 47.7785 104.361 49.7673 101.531 49.4608C98.7012 49.1544 96.6573 46.6681 96.9593 43.8994L107.236 45.0123Z" fill="#F7FFF4"/>
<path d="M106.949 45.0124C106.635 47.6326 104.208 49.5075 101.529 49.2002C98.85 48.8928 96.9328 46.5197 97.247 43.8995L96.9597 44.1805L100.436 44.557L105.973 45.1565L107.237 45.2934C107.604 45.3331 107.601 44.7709 107.237 44.7314L103.76 44.355L98.2236 43.7554L96.9597 43.6186C96.7943 43.6006 96.6871 43.7626 96.6724 43.8995C96.4691 45.7952 97.3154 47.6529 98.8925 48.773C100.47 49.893 102.538 50.1051 104.318 49.3294C106.099 48.5537 107.321 46.9081 107.524 45.0124C107.523 44.8577 107.395 44.7325 107.237 44.7314C107.079 44.7348 106.953 44.8587 106.949 45.0124Z" fill="black"/>
<path d="M104.801 45.6832L105.479 39.3408L99.7279 40.7358L99.0254 44.868" fill="#F7FFF4"/>
<path d="M105.088 45.6831L105.684 40.1185L105.767 39.3409C105.766 39.2535 105.724 39.1714 105.653 39.1185C105.582 39.0655 105.49 39.0476 105.403 39.0699L100.368 40.2911L99.6518 40.4648C99.5536 40.4899 99.4769 40.5649 99.4512 40.661L98.8379 44.2686L98.7487 44.7933C98.6886 45.147 99.2422 45.2992 99.3028 44.9427L99.916 41.3351L100.005 40.8104L99.8046 41.0066L104.84 39.7855L105.556 39.6118L105.192 39.3409L104.597 44.9054L104.514 45.6831C104.475 46.0423 105.05 46.0397 105.088 45.6831H105.088Z" fill="black"/>
<path d="M105.247 41.5305C108.712 39.5287 108.052 36.9997 108.449 35.2725C108.68 34.2695 107.593 31.8977 107.593 31.8977L99.4062 28.5195L97.013 30.9778C97.013 30.9778 91.2623 41.9631 101.64 41.5252" fill="#F7FFF4"/>
<path d="M105.391 41.7737C106.387 41.1931 107.297 40.4317 107.848 39.4187C108.231 38.6626 108.461 37.8413 108.525 36.9998C108.565 36.6379 108.59 36.2745 108.632 35.9128C108.7 35.5793 108.745 35.2417 108.768 34.9024C108.751 34.0529 108.43 33.1967 108.119 32.4135C108.046 32.1899 107.954 31.9726 107.845 31.7639C107.772 31.6746 107.672 31.6107 107.559 31.5818L106.42 31.112L102.349 29.4321L100.516 28.6756C100.189 28.5408 99.8635 28.3834 99.5288 28.2685C99.5131 28.2631 99.4978 28.2557 99.4824 28.2493C99.3827 28.2208 99.2751 28.2486 99.2028 28.3216L97.8867 29.6734L97.0586 30.5242C96.9491 30.6204 96.8497 30.7271 96.7617 30.8425C96.6633 31.0163 96.5773 31.1966 96.5042 31.382C96.3131 31.8057 96.1376 32.2357 95.9779 32.6721C95.5275 33.8505 95.2494 35.0852 95.1517 36.3396C95.0717 37.6454 95.2985 39.0133 96.1558 40.0574C97.2455 41.3843 99.0805 41.774 100.737 41.8157C101.038 41.8232 101.339 41.8189 101.64 41.8068C102.008 41.792 102.01 41.23 101.64 41.2449C99.987 41.3113 98.0413 41.146 96.8277 39.9512C95.9522 39.0892 95.6864 37.8657 95.7128 36.6617C95.7661 35.4501 96.0074 34.2535 96.4286 33.1129C96.5117 32.8715 96.6002 32.6319 96.6938 32.3941C96.7351 32.2893 96.7774 32.1848 96.8206 32.0806C96.8399 32.0341 96.8594 31.9877 96.8792 31.9413C96.8892 31.9177 96.8993 31.8941 96.9094 31.8705C96.885 31.9274 96.9048 31.881 96.9173 31.8527C97.018 31.6238 97.1381 31.4013 97.2348 31.1712C97.2446 31.156 97.2528 31.1399 97.2593 31.1231C97.2495 31.182 97.2025 31.1908 97.2778 31.1135L97.9039 30.4703L99.4996 28.8313L99.6092 28.7188L99.3296 28.791L102.1 29.9342L106.497 31.7485L107.517 32.1691L107.345 32.04C107.36 32.0717 107.374 32.1035 107.388 32.1353C107.422 32.2137 107.392 32.1447 107.423 32.2174C107.447 32.2751 107.471 32.3329 107.495 32.3908C107.622 32.7006 107.74 33.014 107.846 33.3313C108.054 33.9555 108.281 34.6564 108.149 35.3037C108.026 35.911 108.008 36.5339 107.934 37.1476C107.87 37.8144 107.685 38.4648 107.387 39.0684C106.883 40.0318 106.04 40.7412 105.101 41.2885C104.784 41.4736 105.073 41.9596 105.391 41.7738L105.391 41.7737Z" fill="black"/>
<path d="M99.8668 33.7892C99.7554 33.8743 99.8261 33.8199 99.8544 33.8012C99.8907 33.777 99.9283 33.7547 99.9664 33.7334C100.023 33.7022 100.08 33.6743 100.139 33.6478C100.172 33.6329 100.184 33.6303 100.143 33.6456C100.163 33.6382 100.182 33.6303 100.202 33.6231C100.244 33.6077 100.286 33.5937 100.33 33.5809C100.421 33.554 100.515 33.5332 100.609 33.5186C100.63 33.5155 100.626 33.5159 100.599 33.5196C100.612 33.518 100.626 33.5165 100.64 33.5152C100.663 33.5132 100.686 33.5111 100.709 33.5096C100.766 33.506 100.824 33.5049 100.882 33.5062C100.943 33.5074 101.003 33.5117 101.064 33.519C101.022 33.5137 101.115 33.5282 101.113 33.5279C101.146 33.5338 101.178 33.5405 101.21 33.548C101.337 33.5772 101.461 33.6195 101.579 33.6741C101.717 33.748 101.89 33.7037 101.972 33.5734C102.051 33.4393 102.005 33.2684 101.869 33.1893C101.352 32.937 100.757 32.8813 100.199 33.033C99.932 33.1059 99.6812 33.2278 99.4605 33.3922C99.3491 33.5022 99.3491 33.6792 99.4605 33.7892C99.5742 33.895 99.753 33.895 99.8668 33.7892L99.8668 33.7892Z" fill="black"/>
<path d="M96.3102 32.97C96.8209 33.0479 97.274 33.3478 97.6594 33.6684C97.8572 33.8329 98.0907 34.0355 98.1423 34.2977C98.1625 34.5274 98.1053 34.7572 97.9794 34.952C97.8435 35.2069 97.6692 35.4404 97.4623 35.6447C97.3218 35.7856 97.1276 35.8974 96.9994 36.0447C96.9212 36.1472 96.8776 36.271 96.8747 36.3988C96.8351 36.9864 97.4789 37.1153 97.9471 37.1355C98.3168 37.1515 98.316 36.5895 97.9471 36.5736C97.7995 36.5755 97.6527 36.553 97.5129 36.5069C97.4554 36.4841 97.45 36.4803 97.4451 36.4564C97.4498 36.4797 97.4482 36.4109 97.4536 36.3987C97.4605 36.3534 97.4653 36.3457 97.4681 36.3756C97.4701 36.4162 97.4921 36.405 97.534 36.3421C97.6934 36.2263 97.8379 36.0922 97.9643 35.9425C98.3255 35.5518 98.6838 35.0285 98.7241 34.4867C98.7688 33.8851 98.3054 33.4477 97.859 33.1084C97.4591 32.7711 96.9792 32.5372 96.463 32.4281C96.3107 32.3921 96.156 32.478 96.1096 32.6244C96.0685 32.7739 96.1579 32.9279 96.3102 32.97V32.97Z" fill="black"/>
<ellipse cx="96.5514" cy="34.8524" rx="0.371696" ry="0.363163" fill="black"/>
<path d="M96.3221 34.8322C96.3249 34.8157 96.3288 34.7994 96.3337 34.7833C96.3353 34.7735 96.3387 34.7641 96.3436 34.7554C96.3426 34.7564 96.328 34.7855 96.3413 34.7622C96.3492 34.7481 96.3567 34.734 96.3659 34.7206L96.3715 34.7127C96.3806 34.7005 96.3791 34.7024 96.3669 34.7185C96.3664 34.7142 96.3838 34.7 96.3864 34.6974C96.3921 34.6918 96.3983 34.6867 96.4039 34.6811L96.4075 34.6779C96.4194 34.6683 96.4172 34.6696 96.401 34.682C96.4066 34.672 96.4322 34.6616 96.4416 34.6563C96.4472 34.6533 96.4531 34.6506 96.4587 34.6475C96.4873 34.6315 96.4286 34.6565 96.4601 34.6466C96.4771 34.6409 96.4943 34.636 96.5118 34.632L96.5166 34.631C96.5325 34.6284 96.5295 34.6285 96.5078 34.6316C96.5113 34.6285 96.5276 34.6298 96.5327 34.6296C96.5497 34.6288 96.5664 34.6302 96.5833 34.6307C96.6046 34.6312 96.5481 34.6227 96.5811 34.6305C96.5894 34.6324 96.5979 34.6339 96.6062 34.636C96.6145 34.6381 96.6225 34.6404 96.6306 34.643C96.6354 34.6445 96.6401 34.6462 96.6448 34.648C96.6548 34.6518 96.6511 34.6502 96.6335 34.6432C96.6436 34.6419 96.6677 34.6606 96.6769 34.6663C96.6857 34.6705 96.6939 34.676 96.701 34.6826C96.6997 34.6809 96.6761 34.6608 96.6946 34.6786C96.7062 34.6897 96.7174 34.7009 96.7288 34.7122C96.7507 34.7339 96.718 34.6929 96.7274 34.7097C96.7328 34.7192 96.7403 34.7279 96.746 34.7373C96.7493 34.7427 96.7525 34.7482 96.7555 34.7538L96.7599 34.7622C96.7665 34.7761 96.7657 34.7736 96.7573 34.7547C96.7656 34.7609 96.7702 34.7912 96.7724 34.8C96.7741 34.8062 96.7753 34.8125 96.7768 34.8188C96.7845 34.8511 96.7759 34.7865 96.7773 34.8199C96.7784 34.8379 96.7787 34.856 96.778 34.8741C96.7768 34.8927 96.7677 34.8907 96.7791 34.8718C96.7772 34.8783 96.7759 34.885 96.7753 34.8918C96.7717 34.9081 96.7662 34.9236 96.7612 34.9396C96.7513 34.9713 96.7759 34.9129 96.76 34.9419C96.7569 34.9476 96.754 34.9534 96.7508 34.959C96.746 34.9674 96.7408 34.9755 96.7354 34.9835L96.7298 34.9914C96.7206 35.0036 96.7222 35.0017 96.7344 34.9856C96.7348 34.9923 96.7058 35.0155 96.7009 35.0199C96.6986 35.022 96.6775 35.0439 96.6933 35.0272C96.7082 35.0114 96.6883 35.0304 96.6844 35.033C96.6709 35.0418 96.6567 35.0489 96.6425 35.0566C96.6183 35.0698 96.65 35.0544 96.6502 35.0541C96.6454 35.0604 96.6209 35.0642 96.6133 35.0664C96.607 35.0681 96.6006 35.0697 96.5942 35.0711L96.5846 35.0731C96.5687 35.0758 96.5717 35.0756 96.5934 35.0726C96.5873 35.0786 96.5567 35.075 96.5484 35.0749C96.5401 35.0749 96.5314 35.0741 96.5229 35.0739C96.4893 35.0733 96.546 35.0792 96.5252 35.0745C96.5068 35.0704 96.4885 35.067 96.4706 35.0611L96.4611 35.0579C96.4463 35.0523 96.4485 35.0533 96.4676 35.0609C96.4593 35.0556 96.4504 35.0512 96.4412 35.0477C96.434 35.0438 96.427 35.0396 96.4202 35.0353C96.4161 35.0327 96.412 35.03 96.408 35.0272C96.3955 35.0182 96.3974 35.0197 96.4139 35.0317C96.4044 35.0327 96.3781 34.9977 96.3723 34.9919C96.3618 34.9814 96.3617 34.9896 96.3766 34.9983C96.3701 34.9945 96.3643 34.9815 96.3601 34.9749C96.355 34.967 96.3501 34.9588 96.3456 34.9503C96.3433 34.9462 96.3411 34.9419 96.3391 34.9376C96.3345 34.9281 96.3361 34.932 96.3438 34.9494C96.3342 34.9415 96.3291 34.9068 96.3263 34.8948C96.3251 34.8895 96.3145 34.865 96.3236 34.885C96.3251 34.8973 96.3252 34.8971 96.3238 34.8844C96.3232 34.8779 96.3228 34.8713 96.3226 34.8648C96.3224 34.8583 96.3223 34.8517 96.3225 34.8451C96.3226 34.8364 96.328 34.7914 96.3219 34.8324C96.3408 34.7579 96.2967 34.6821 96.2216 34.6597C96.1452 34.64 96.0667 34.6836 96.0449 34.7577C96.0259 34.867 96.042 34.9794 96.091 35.0794C96.1356 35.1665 96.2054 35.239 96.2918 35.2877C96.4849 35.3945 96.726 35.3705 96.8931 35.2278C97.0505 35.0908 97.1065 34.8737 97.0342 34.6802C96.9553 34.4672 96.7404 34.3321 96.5093 34.3503C96.2782 34.3684 96.0881 34.5352 96.0449 34.7577C96.0257 34.8322 96.0699 34.9083 96.1452 34.9304C96.2217 34.9501 96.3003 34.9065 96.3221 34.8322Z" fill="black"/>
<ellipse cx="100.034" cy="35.2548" rx="0.371704" ry="0.363159" fill="black"/>
<path d="M99.8045 35.2346C99.8074 35.2181 99.8112 35.2018 99.8161 35.1857C99.8178 35.1759 99.8211 35.1665 99.826 35.1578C99.825 35.1588 99.8105 35.1879 99.8237 35.1646C99.8317 35.1505 99.8391 35.1364 99.8483 35.123L99.8539 35.1151C99.8631 35.1029 99.8615 35.1048 99.8493 35.1209C99.8489 35.1165 99.8662 35.1024 99.8688 35.0998C99.8745 35.0941 99.8807 35.089 99.8863 35.0835L99.8899 35.0803C99.9018 35.0706 99.8997 35.072 99.8834 35.0844C99.889 35.0744 99.9146 35.0638 99.924 35.0587C99.9296 35.0556 99.9355 35.053 99.9411 35.0499C99.9697 35.0338 99.911 35.0589 99.9425 35.049C99.9595 35.0433 99.9767 35.0384 99.9942 35.0344L99.999 35.0334C100.015 35.0307 100.012 35.0309 99.9902 35.0339C99.9937 35.0308 100.01 35.0322 100.015 35.032C100.032 35.0312 100.049 35.0326 100.066 35.033C100.087 35.0336 100.031 35.0251 100.064 35.0328C100.072 35.0348 100.08 35.0363 100.089 35.0383C100.097 35.0404 100.105 35.0427 100.113 35.0454C100.118 35.0469 100.123 35.0486 100.127 35.0504C100.137 35.0541 100.134 35.0526 100.116 35.0456C100.126 35.0443 100.15 35.063 100.159 35.0686C100.168 35.0728 100.176 35.0783 100.183 35.0849C100.182 35.0832 100.158 35.0632 100.177 35.081C100.189 35.0921 100.2 35.1032 100.211 35.1145C100.233 35.1363 100.2 35.0953 100.21 35.112C100.215 35.1216 100.223 35.1302 100.228 35.1396C100.232 35.145 100.235 35.1506 100.238 35.1561L100.242 35.1646C100.249 35.1784 100.248 35.1759 100.24 35.157C100.248 35.1633 100.253 35.1936 100.255 35.2024C100.256 35.2086 100.258 35.2149 100.259 35.2212C100.267 35.2535 100.258 35.1887 100.26 35.2222C100.261 35.2403 100.261 35.2583 100.26 35.2764C100.259 35.2951 100.25 35.293 100.262 35.2742C100.26 35.2807 100.258 35.2874 100.258 35.2941C100.254 35.3104 100.249 35.326 100.244 35.3419C100.234 35.3736 100.258 35.3152 100.242 35.3443C100.239 35.3499 100.236 35.3557 100.233 35.3613C100.228 35.3697 100.223 35.3779 100.218 35.3859L100.212 35.3937C100.203 35.4059 100.205 35.404 100.217 35.3879C100.217 35.3947 100.188 35.4178 100.183 35.4222C100.181 35.4243 100.16 35.4462 100.176 35.4295C100.191 35.4138 100.171 35.4328 100.167 35.4353C100.153 35.4442 100.139 35.4512 100.125 35.459C100.101 35.4722 100.132 35.4568 100.133 35.4564C100.128 35.4627 100.103 35.4667 100.096 35.4687C100.089 35.4704 100.083 35.472 100.077 35.4734L100.067 35.4754C100.051 35.4781 100.054 35.4779 100.076 35.4749C100.07 35.4809 100.039 35.4773 100.031 35.4773C100.022 35.4772 100.014 35.4764 100.005 35.4762C99.9718 35.4756 100.028 35.4815 100.008 35.4769C99.9892 35.4727 99.9709 35.4693 99.953 35.4635L99.9435 35.4602C99.9288 35.4547 99.9309 35.4557 99.9501 35.4632C99.9417 35.458 99.9328 35.4535 99.9236 35.45C99.9164 35.4461 99.9094 35.442 99.9026 35.4376C99.8985 35.435 99.8944 35.4323 99.8904 35.4295C99.8779 35.4206 99.8798 35.4221 99.8963 35.434C99.8868 35.435 99.8605 35.4 99.8547 35.3943C99.8443 35.3838 99.8441 35.392 99.859 35.4006C99.8525 35.3968 99.8467 35.3838 99.8425 35.3773C99.8374 35.3693 99.8325 35.3611 99.828 35.3527C99.8257 35.3485 99.8236 35.3443 99.8215 35.34C99.8169 35.3304 99.8185 35.3344 99.8262 35.3518C99.8166 35.3439 99.8116 35.3091 99.8087 35.2972C99.8075 35.2918 99.7969 35.2673 99.8061 35.2873C99.8076 35.2996 99.8076 35.2994 99.8062 35.2867C99.8056 35.2802 99.8052 35.2737 99.805 35.2672C99.8048 35.2606 99.8047 35.254 99.8049 35.2474C99.8051 35.2388 99.8104 35.1937 99.8043 35.2347C99.8232 35.1602 99.7791 35.0844 99.704 35.0621C99.6276 35.0423 99.5491 35.0859 99.5273 35.1601C99.5083 35.2694 99.5244 35.3817 99.5734 35.4817C99.618 35.5689 99.6878 35.6413 99.7742 35.6901C99.9673 35.7969 100.208 35.7728 100.375 35.6301C100.533 35.4931 100.589 35.2761 100.517 35.0825C100.438 34.8696 100.223 34.7345 99.9917 34.7526C99.7606 34.7707 99.5705 34.9376 99.5273 35.1601C99.5081 35.2346 99.5523 35.3106 99.6276 35.3327C99.7041 35.3525 99.7827 35.3089 99.8045 35.2346Z" fill="black"/>
<ellipse cx="99.2203" cy="38.2697" rx="0.484005" ry="0.472872" fill="black"/>
<path d="M98.8797 38.2332C98.8834 38.2116 98.8884 38.1903 98.8947 38.1694C98.8986 38.1571 98.9028 38.1449 98.9077 38.133C98.9052 38.139 98.896 38.1545 98.909 38.1318C98.9195 38.1134 98.9291 38.095 98.9411 38.0775C98.9434 38.0742 98.9693 38.0436 98.9491 38.0662C98.9575 38.0569 98.9657 38.0475 98.9746 38.0387C98.982 38.0313 98.9899 38.0246 98.9973 38.0174C99.0022 38.0127 99.0243 37.9957 99.0024 38.012C99.0191 37.9997 99.0368 37.9885 99.0552 37.9785C99.0625 37.9745 99.0702 37.971 99.0775 37.967C99.1117 37.9481 99.0523 37.9738 99.0897 37.9616C99.1118 37.954 99.1342 37.9476 99.157 37.9425C99.1644 37.941 99.1927 37.9369 99.1633 37.9404C99.1741 37.9391 99.1849 37.9384 99.1958 37.9379C99.2178 37.937 99.2398 37.9375 99.2618 37.9392C99.2867 37.9411 99.2292 37.9313 99.2704 37.9405C99.2813 37.9429 99.2923 37.9449 99.3031 37.9477C99.3139 37.9504 99.3244 37.9534 99.3348 37.9568C99.3379 37.9578 99.3758 37.9737 99.3491 37.9614C99.3685 37.9703 99.3874 37.9803 99.4055 37.9914C99.4163 37.9981 99.4269 38.0051 99.437 38.0127C99.4316 38.0086 99.4191 37.9964 99.4374 38.0142C99.4523 38.0288 99.4671 38.0432 99.4819 38.0579C99.5094 38.0854 99.4732 38.0446 99.4869 38.0632C99.4955 38.0749 99.5036 38.0869 99.5112 38.0992C99.5161 38.1074 99.5413 38.1586 99.5302 38.132C99.5382 38.1513 99.5447 38.171 99.5499 38.1911C99.552 38.1992 99.5536 38.2075 99.5556 38.2156C99.565 38.2542 99.5556 38.1882 99.5577 38.2282C99.5594 38.2517 99.5597 38.2753 99.5586 38.2989C99.5582 38.3058 99.5542 38.3341 99.5586 38.3073C99.5572 38.316 99.5555 38.3246 99.5536 38.3332C99.5489 38.3545 99.5421 38.3748 99.5353 38.3955C99.5228 38.4332 99.5484 38.374 99.5293 38.4087C99.5253 38.4161 99.5215 38.4236 99.5173 38.4309C99.5111 38.4418 99.5044 38.4524 99.4972 38.4628C99.4935 38.4682 99.4701 38.4956 99.4892 38.4742C99.4755 38.4898 99.461 38.5047 99.4456 38.5188C99.4464 38.5181 99.4152 38.5443 99.4313 38.5317C99.4473 38.5191 99.4145 38.5431 99.4153 38.5425C99.3977 38.5541 99.3792 38.5632 99.3608 38.5733C99.3378 38.586 99.3543 38.5767 99.3604 38.5743C99.3447 38.5805 99.3287 38.5858 99.3123 38.5903C99.3016 38.5932 99.2449 38.6035 99.275 38.5999C99.2555 38.6021 99.2359 38.6031 99.2163 38.6029C99.2052 38.6029 99.1942 38.6019 99.1831 38.6016C99.1415 38.6005 99.1991 38.6052 99.1745 38.6009C99.1504 38.5968 99.1267 38.5909 99.1034 38.5834C99.0999 38.5823 99.0613 38.5658 99.0892 38.5789C99.0775 38.5734 99.066 38.5678 99.0547 38.5617C99.0454 38.5566 99.0363 38.5511 99.0274 38.5454C99.0219 38.542 98.9882 38.5152 99.0105 38.5342C98.9913 38.5178 98.9742 38.5001 98.9563 38.4824C98.9528 38.4788 98.9392 38.4617 98.955 38.482C98.9474 38.4722 98.9404 38.462 98.9337 38.4516C98.9269 38.4412 98.9206 38.4305 98.9147 38.4196C98.9132 38.4167 98.8962 38.3801 98.908 38.4082C98.8984 38.3851 98.8908 38.3613 98.8853 38.337C98.8854 38.3377 98.8774 38.2974 98.881 38.3185C98.8838 38.3346 98.879 38.2914 98.8789 38.2866C98.8786 38.278 98.8785 38.2694 98.8787 38.2609C98.8788 38.2552 98.884 38.2028 98.8795 38.233C98.8984 38.1585 98.8543 38.0826 98.7792 38.0602C98.7028 38.0405 98.6243 38.0841 98.6025 38.1583C98.5533 38.4158 98.6768 38.6753 98.9098 38.8044C99.1429 38.9334 99.434 38.9034 99.6344 38.7297C99.8283 38.5618 99.8968 38.2947 99.8071 38.0572C99.7094 37.7981 99.4467 37.6349 99.1654 37.6585C98.8841 37.6821 98.6536 37.8868 98.6025 38.1583C98.5833 38.2329 98.6275 38.309 98.7028 38.3311C98.7792 38.3509 98.8578 38.3074 98.8797 38.2332Z" fill="black"/>
<path d="M106.254 34.7816C106.106 34.7054 105.939 34.6721 105.772 34.6855C105.392 34.7296 105.048 34.9288 104.827 35.234C104.602 35.528 104.425 35.8532 104.299 36.1988C104.258 36.3484 104.347 36.5027 104.5 36.5444C104.652 36.5813 104.808 36.4951 104.853 36.3482C104.869 36.309 104.884 36.27 104.9 36.2312C104.905 36.2198 104.929 36.1658 104.908 36.212C104.915 36.1962 104.923 36.1804 104.93 36.1646C104.96 36.098 104.992 36.0323 105.027 35.9674C105.086 35.8537 105.154 35.7442 105.229 35.6397C105.236 35.6298 105.243 35.62 105.25 35.6101C105.269 35.5854 105.289 35.5856 105.244 35.6176C105.26 35.6017 105.275 35.5841 105.288 35.5651C105.32 35.5273 105.354 35.4909 105.39 35.4562C105.42 35.4282 105.45 35.4022 105.481 35.3762C105.535 35.3307 105.431 35.4098 105.481 35.3766C105.498 35.365 105.515 35.3531 105.532 35.3421C105.56 35.3248 105.589 35.3086 105.618 35.294C105.633 35.2869 105.648 35.281 105.662 35.2735C105.692 35.2582 105.585 35.3018 105.627 35.2881C105.637 35.285 105.646 35.2811 105.656 35.2779C105.681 35.2691 105.707 35.2616 105.734 35.2554C105.747 35.2524 105.76 35.25 105.773 35.2472C105.84 35.2332 105.717 35.2518 105.747 35.2499C105.793 35.2458 105.838 35.245 105.884 35.2473C105.892 35.248 105.901 35.2493 105.91 35.2498C105.948 35.252 105.815 35.2339 105.868 35.2445C105.886 35.2481 105.903 35.251 105.921 35.2553C105.948 35.262 105.974 35.2721 106 35.2806C105.928 35.2576 105.926 35.2465 105.964 35.2669C106.101 35.3452 106.277 35.3001 106.357 35.1661C106.437 35.0321 106.391 34.86 106.254 34.7816L106.254 34.7816Z" fill="black"/>
<path d="M93.2204 37.1268L92.0977 36.8887L93.2204 37.1268Z" fill="#FFC41F"/>
<path d="M93.2971 36.8556L92.3143 36.6477L92.1743 36.6181C92.0751 36.5906 91.9684 36.6172 91.8947 36.6878C91.8211 36.7583 91.7918 36.8621 91.818 36.9596C91.8443 37.057 91.9219 37.1333 92.0216 37.1594L93.0043 37.3673L93.1443 37.3969C93.2436 37.4244 93.3503 37.3978 93.4239 37.3272C93.4976 37.2566 93.5268 37.1529 93.5006 37.0554C93.4744 36.9579 93.3967 36.8817 93.2971 36.8556Z" fill="black"/>
<path d="M93.2832 38.6914L92.1504 38.8774L93.2832 38.6914Z" fill="#FFC41F"/>
<path d="M93.2069 38.4206L92.2171 38.5834L92.0741 38.6069C91.9215 38.6486 91.8319 38.8028 91.8734 38.9522C91.9192 39.0989 92.0744 39.185 92.2268 39.1482L93.2167 38.9854L93.3597 38.9619C93.5123 38.9202 93.6019 38.766 93.5603 38.6166C93.5145 38.4699 93.3593 38.3838 93.2069 38.4206Z" fill="black"/>
<path d="M93.7416 39.8916L92.9199 40.6759L93.7416 39.8916Z" fill="#FFC41F"/>
<path d="M93.5376 39.6935L92.8169 40.3821L92.7159 40.4786C92.6047 40.5885 92.6052 40.7656 92.717 40.8749C92.8287 40.9843 93.0098 40.9847 93.1222 40.876L93.8429 40.1874L93.9439 40.0909C94.0551 39.981 94.0546 39.8039 93.9428 39.6946C93.8311 39.5853 93.65 39.5848 93.5376 39.6935Z" fill="black"/>
<path d="M94.9492 30.5449L102.994 32.3244L103.531 37.0536C103.531 37.0536 103.681 35.0495 104.483 34.2784C104.824 33.9738 105.19 33.7922 105.517 33.83C106.416 33.9339 107.071 34.3098 106.919 35.5684C106.819 36.4015 105.929 37.7711 105.386 38.0938L105.247 41.5308L105.249 41.5296C107.062 40.4026 110.205 38.4864 111.593 33.3007C111.894 32.1695 111.867 30.9782 111.513 29.8615C110.809 27.6325 108.899 25.9688 106.554 25.5407L98.1095 23.9893" fill="#0C042E"/>
<path d="M94.8719 30.8161L97.5979 31.4191L101.919 32.3749L102.916 32.5955L102.705 32.3246L103.176 36.4667L103.242 37.0538C103.248 37.2051 103.375 37.3249 103.53 37.3249C103.684 37.3249 103.811 37.2051 103.817 37.0538C103.855 36.3096 104.044 35.5803 104.373 34.9081C104.495 34.6677 104.677 34.461 104.902 34.3073C105.131 34.1376 105.427 34.077 105.707 34.1421C106.121 34.2241 106.49 34.4054 106.607 34.8318C106.752 35.365 106.575 35.9279 106.336 36.4068C106.105 36.9155 105.775 37.3753 105.364 37.7604C105.233 37.8717 105.111 37.9355 105.097 38.1228C105.09 38.2085 105.09 38.2951 105.086 38.381L105.043 39.4527L104.959 41.531C104.96 41.6311 105.015 41.7231 105.104 41.773C105.193 41.8228 105.302 41.8231 105.391 41.7736C106.989 40.7894 108.451 39.6715 109.588 38.1788C110.399 37.0955 111.037 35.898 111.479 34.6273C111.781 33.8488 111.979 33.0355 112.067 32.2075C112.133 31.37 112.032 30.528 111.77 29.728C111.001 27.4171 109.001 25.7021 106.558 25.257C105.175 25.0021 103.791 24.7479 102.407 24.4943C101.024 24.2401 99.6417 23.9761 98.2563 23.7316C98.2325 23.7274 98.2088 23.7229 98.185 23.7185C97.8236 23.6521 97.6687 24.1935 98.0322 24.2604L101.425 24.8837L106.076 25.7382C106.72 25.8364 107.35 26.0141 107.948 26.2672C110.683 27.504 112.096 30.4982 111.285 33.3358C110.926 34.6915 110.357 35.9859 109.6 37.1743C108.558 38.7771 107.128 40.0141 105.507 41.0352C105.372 41.1202 105.237 41.2046 105.101 41.2884L105.533 41.531L105.673 38.094L105.53 38.3366C105.827 38.1315 106.083 37.8743 106.284 37.578C106.535 37.2435 106.749 36.8834 106.92 36.5039C107.226 35.8261 107.424 34.9139 106.965 34.2519C106.584 33.7026 105.663 33.3891 105.02 33.6175C104.201 33.9088 103.79 34.6511 103.551 35.4209C103.388 35.9527 103.285 36.5002 103.242 37.0539H103.817L103.347 32.9118L103.28 32.3247C103.277 32.1994 103.192 32.0902 103.069 32.0538L100.343 31.4508L96.0221 30.495L95.0247 30.2743C94.6646 30.1947 94.5109 30.7363 94.8719 30.8162V30.8161Z" fill="black"/>
<path d="M100.408 54.8012L104.907 44.5822L105.059 43.1508L105.81 43.1504C107.122 43.1497 108.378 43.676 109.282 44.6063L109.95 45.2929L106.154 50.6803" fill="#543EE9"/>
<path d="M100.655 54.943L102.526 50.6924L104.992 45.091C105.081 44.9279 105.148 44.7549 105.194 44.5758C105.27 44.1061 105.295 43.6239 105.346 43.1508L105.058 43.4318C105.355 43.4316 105.652 43.425 105.949 43.4333C106.605 43.4518 107.248 43.6113 107.834 43.9004C108.606 44.2841 109.159 44.8887 109.746 45.4916L109.701 45.1512L106.382 49.8614L105.905 50.5386C105.695 50.8372 106.192 51.1185 106.401 50.8223L109.72 46.112L110.197 45.4348C110.262 45.3243 110.243 45.1851 110.152 45.0943C109.516 44.4407 108.906 43.7896 108.062 43.3851C107.445 43.0892 106.774 42.9166 106.089 42.8774C105.746 42.8579 105.401 42.8697 105.058 42.8699C104.901 42.8739 104.775 42.9974 104.771 43.1509L104.629 44.4876C104.604 44.7178 104.709 44.345 104.639 44.4844C104.606 44.5493 104.58 44.618 104.55 44.6843L103.617 46.8042L100.852 53.0847L100.159 54.6594C100.014 54.988 100.509 55.2745 100.655 54.943H100.655Z" fill="black"/>
<path d="M102.498 73.582C102.498 73.582 103.627 80.4584 109.248 80.5073L102.498 73.582Z" fill="#0C042E"/>
<path d="M102.221 73.6564C102.372 74.4794 102.621 75.2821 102.964 76.0481C103.617 77.5682 104.604 79.0079 106.054 79.8995C107.014 80.4776 108.12 80.7851 109.248 80.788C109.618 80.7927 109.618 80.2307 109.248 80.2261C108.304 80.2242 107.376 79.9867 106.552 79.5361C105.838 79.1269 105.215 78.584 104.717 77.9384C103.898 76.86 103.303 75.6348 102.967 74.3323C102.889 74.0607 102.825 73.7852 102.775 73.507C102.716 73.151 102.163 73.302 102.221 73.6564Z" fill="#0C042E"/>
<path d="M107.583 53.2168C107.583 53.2168 104.9 53.425 103.627 56.684C106.653 57.302 107.786 55.9042 107.786 55.9042C107.786 55.9042 108.388 59.1839 109.874 59.3092C110.285 58.0341 110.887 55.5599 108.901 53.2716" fill="#0C042E"/>
<path d="M107.583 52.9357C106.339 53.0355 105.15 53.8568 104.396 54.7825C103.954 55.3358 103.602 55.9517 103.35 56.6091C103.309 56.7586 103.398 56.9129 103.551 56.9547C104.657 57.1755 105.855 57.2268 106.918 56.7966C107.327 56.6535 107.695 56.4154 107.989 56.1027L107.509 55.9787C107.586 56.3804 107.692 56.7764 107.824 57.164C108.05 57.8433 108.347 58.561 108.862 59.0838C109.126 59.3664 109.485 59.5462 109.874 59.5901C110.003 59.5893 110.116 59.5052 110.151 59.3838C110.459 58.4918 110.601 57.5534 110.571 56.6126C110.492 55.3073 109.977 54.0635 109.104 53.0728C108.866 52.7953 108.462 53.1946 108.698 53.4701C109.494 54.3818 109.954 55.5294 110.001 56.7276C110.013 57.5795 109.876 58.4272 109.597 59.2344L109.874 59.0282C109.169 58.9565 108.735 57.9673 108.511 57.3855C108.314 56.8811 108.164 56.3602 108.063 55.8293C108.036 55.7335 107.958 55.6591 107.859 55.6336C107.761 55.6082 107.656 55.6354 107.583 55.7054C107.519 55.7784 107.448 55.8452 107.371 55.9047C107.349 55.9228 107.325 55.94 107.362 55.9126C107.337 55.9315 107.311 55.9498 107.285 55.9677C107.233 56.0033 107.18 56.0372 107.126 56.0693C107.005 56.1421 106.878 56.2064 106.748 56.2618C105.796 56.6616 104.697 56.6112 103.703 56.4129L103.904 56.7585C104.499 55.2572 105.689 53.928 107.31 53.5489C107.392 53.5296 107.475 53.5162 107.558 53.5003C107.618 53.4887 107.488 53.5052 107.583 53.4976C107.949 53.4682 107.952 52.9061 107.583 52.9357H107.583Z" fill="black"/>
<path d="M109.95 44.2549C108.819 44.9661 108.25 46.283 108.518 47.5715C106.771 47.9497 105.664 49.6371 106.04 51.3481C106.417 53.0591 108.136 54.1513 109.888 53.7927C111.64 53.4341 112.766 51.7594 112.41 50.0442C113.73 49.7595 114.733 48.7065 114.93 47.3984C115.127 46.0903 114.477 44.7993 113.297 44.1543" fill="#0C042E"/>
<path d="M109.804 44.012C108.573 44.7978 107.954 46.236 108.24 47.6458L108.441 47.3002C106.539 47.719 105.34 49.562 105.759 51.4241C106.178 53.2862 108.057 54.4674 109.963 54.067C111.869 53.6666 113.086 51.8352 112.686 49.9692L112.485 50.3148C113.583 50.0732 114.498 49.3366 114.951 48.3298C115.404 47.3231 115.342 46.1657 114.783 45.2112C114.461 44.6692 113.998 44.2206 113.441 43.9113C113.305 43.8385 113.134 43.885 113.055 44.0163C112.977 44.1475 113.019 44.316 113.151 44.3966C114.233 44.984 114.828 46.1655 114.646 47.362C114.464 48.5585 113.542 49.5192 112.333 49.773C112.182 49.817 112.093 49.9694 112.132 50.1186C112.313 51.022 112.046 51.956 111.412 52.6365C110.778 53.3169 109.852 53.6633 108.915 53.5703C107.039 53.3997 105.818 51.4814 106.404 49.7538C106.744 48.7873 107.573 48.0632 108.594 47.8421C108.744 47.7981 108.833 47.6456 108.794 47.4965C108.569 46.3318 109.081 45.1488 110.094 44.4972C110.402 44.2994 110.114 43.8126 109.804 44.0119L109.804 44.012Z" fill="black"/>
<path d="M152.936 104.344H145.083L145.227 104.484V90.2489C145.226 90.1717 145.162 90.1095 145.083 90.1084H134.166L134.31 90.2489V81.8686C134.31 81.3684 134.216 80.898 133.76 80.5872C133.296 80.2718 132.628 80.3684 132.093 80.3684H129.98C129.222 80.3474 128.469 80.4903 127.775 80.7871C126.837 81.2148 126.073 81.9385 125.607 82.8417C125.28 83.4849 125.112 84.1937 125.116 84.9116C125.116 85.1466 125.116 85.3816 125.116 85.6165V100.083L125.26 99.9421H116.88L117.024 100.083V96.4007C117.035 96.1005 117.023 95.7999 116.987 95.5016C116.75 94.1248 115.536 93.1138 114.108 93.1053C113.343 93.0991 112.578 93.1053 111.813 93.1053H109.248C109.171 93.1079 109.109 93.1701 109.109 93.2458C109.109 93.3215 109.171 93.3836 109.248 93.3863H113.952C114.394 93.3719 114.833 93.4557 115.237 93.6314C115.898 93.94 116.398 94.5029 116.618 95.1857C116.714 95.5355 116.753 95.8975 116.737 96.259V100.083C116.738 100.16 116.801 100.222 116.88 100.223H125.26C125.339 100.222 125.402 100.16 125.403 100.083V86.4739C125.403 85.9374 125.4 85.4007 125.403 84.8642C125.422 82.749 127.025 80.9678 129.168 80.6816C129.718 80.6375 130.271 80.6268 130.822 80.6494H132.844C133.105 80.6267 133.366 80.6845 133.591 80.8146C133.868 81.0025 134.03 81.3134 134.022 81.6426C134.025 81.9654 134.022 82.2885 134.022 82.6112V90.2489C134.024 90.326 134.087 90.3883 134.166 90.3894H145.083L144.94 90.2489V104.484C144.941 104.561 145.005 104.624 145.083 104.625H152.936C153.014 104.622 153.075 104.56 153.075 104.484C153.075 104.408 153.014 104.346 152.936 104.344H152.936Z" fill="#0C042E"/>
</svg>
